G04 #@! TF.GenerationSoftware,KiCad,Pcbnew,(5.0.2)-1*
G04 #@! TF.CreationDate,2019-08-04T21:59:47-04:00*
G04 #@! TF.ProjectId,LSF0108PWR_Breakout,4c534630-3130-4385-9057-525f42726561,rev?*
G04 #@! TF.SameCoordinates,Original*
G04 #@! TF.FileFunction,Legend,Top*
G04 #@! TF.FilePolarity,Positive*
%FSLAX46Y46*%
G04 Gerber Fmt 4.6, Leading zero omitted, Abs format (unit mm)*
G04 Created by KiCad (PCBNEW (5.0.2)-1) date 8/4/2019 9:59:47 PM*
%MOMM*%
%LPD*%
G01*
G04 APERTURE LIST*
%ADD10C,0.150000*%
%ADD11C,0.050000*%
%ADD12C,0.070000*%
%ADD13C,0.120000*%
%ADD14C,0.060000*%
G04 APERTURE END LIST*
D10*
X126833333Y-80565714D02*
X126833333Y-81041904D01*
X126547619Y-80470476D02*
X127547619Y-80803809D01*
X126547619Y-81137142D01*
X127547619Y-81375238D02*
X127547619Y-81994285D01*
X127166666Y-81660952D01*
X127166666Y-81803809D01*
X127119047Y-81899047D01*
X127071428Y-81946666D01*
X126976190Y-81994285D01*
X126738095Y-81994285D01*
X126642857Y-81946666D01*
X126595238Y-81899047D01*
X126547619Y-81803809D01*
X126547619Y-81518095D01*
X126595238Y-81422857D01*
X126642857Y-81375238D01*
X126833333Y-83105714D02*
X126833333Y-83581904D01*
X126547619Y-83010476D02*
X127547619Y-83343809D01*
X126547619Y-83677142D01*
X127214285Y-84439047D02*
X126547619Y-84439047D01*
X127595238Y-84200952D02*
X126880952Y-83962857D01*
X126880952Y-84581904D01*
D11*
X128147452Y-95711190D02*
X127909357Y-95711190D01*
X127909357Y-95211190D01*
X128290309Y-95687380D02*
X128361738Y-95711190D01*
X128480785Y-95711190D01*
X128528404Y-95687380D01*
X128552214Y-95663571D01*
X128576023Y-95615952D01*
X128576023Y-95568333D01*
X128552214Y-95520714D01*
X128528404Y-95496904D01*
X128480785Y-95473095D01*
X128385547Y-95449285D01*
X128337928Y-95425476D01*
X128314119Y-95401666D01*
X128290309Y-95354047D01*
X128290309Y-95306428D01*
X128314119Y-95258809D01*
X128337928Y-95235000D01*
X128385547Y-95211190D01*
X128504595Y-95211190D01*
X128576023Y-95235000D01*
X128956976Y-95449285D02*
X128790309Y-95449285D01*
X128790309Y-95711190D02*
X128790309Y-95211190D01*
X129028404Y-95211190D01*
X129314119Y-95211190D02*
X129361738Y-95211190D01*
X129409357Y-95235000D01*
X129433166Y-95258809D01*
X129456976Y-95306428D01*
X129480785Y-95401666D01*
X129480785Y-95520714D01*
X129456976Y-95615952D01*
X129433166Y-95663571D01*
X129409357Y-95687380D01*
X129361738Y-95711190D01*
X129314119Y-95711190D01*
X129266500Y-95687380D01*
X129242690Y-95663571D01*
X129218880Y-95615952D01*
X129195071Y-95520714D01*
X129195071Y-95401666D01*
X129218880Y-95306428D01*
X129242690Y-95258809D01*
X129266500Y-95235000D01*
X129314119Y-95211190D01*
X129956976Y-95711190D02*
X129671261Y-95711190D01*
X129814119Y-95711190D02*
X129814119Y-95211190D01*
X129766500Y-95282619D01*
X129718880Y-95330238D01*
X129671261Y-95354047D01*
X130266500Y-95211190D02*
X130314119Y-95211190D01*
X130361738Y-95235000D01*
X130385547Y-95258809D01*
X130409357Y-95306428D01*
X130433166Y-95401666D01*
X130433166Y-95520714D01*
X130409357Y-95615952D01*
X130385547Y-95663571D01*
X130361738Y-95687380D01*
X130314119Y-95711190D01*
X130266500Y-95711190D01*
X130218880Y-95687380D01*
X130195071Y-95663571D01*
X130171261Y-95615952D01*
X130147452Y-95520714D01*
X130147452Y-95401666D01*
X130171261Y-95306428D01*
X130195071Y-95258809D01*
X130218880Y-95235000D01*
X130266500Y-95211190D01*
X130718880Y-95425476D02*
X130671261Y-95401666D01*
X130647452Y-95377857D01*
X130623642Y-95330238D01*
X130623642Y-95306428D01*
X130647452Y-95258809D01*
X130671261Y-95235000D01*
X130718880Y-95211190D01*
X130814119Y-95211190D01*
X130861738Y-95235000D01*
X130885547Y-95258809D01*
X130909357Y-95306428D01*
X130909357Y-95330238D01*
X130885547Y-95377857D01*
X130861738Y-95401666D01*
X130814119Y-95425476D01*
X130718880Y-95425476D01*
X130671261Y-95449285D01*
X130647452Y-95473095D01*
X130623642Y-95520714D01*
X130623642Y-95615952D01*
X130647452Y-95663571D01*
X130671261Y-95687380D01*
X130718880Y-95711190D01*
X130814119Y-95711190D01*
X130861738Y-95687380D01*
X130885547Y-95663571D01*
X130909357Y-95615952D01*
X130909357Y-95520714D01*
X130885547Y-95473095D01*
X130861738Y-95449285D01*
X130814119Y-95425476D01*
X131123642Y-95711190D02*
X131123642Y-95211190D01*
X131314119Y-95211190D01*
X131361738Y-95235000D01*
X131385547Y-95258809D01*
X131409357Y-95306428D01*
X131409357Y-95377857D01*
X131385547Y-95425476D01*
X131361738Y-95449285D01*
X131314119Y-95473095D01*
X131123642Y-95473095D01*
X131576023Y-95211190D02*
X131695071Y-95711190D01*
X131790309Y-95354047D01*
X131885547Y-95711190D01*
X132004595Y-95211190D01*
X132480785Y-95711190D02*
X132314119Y-95473095D01*
X132195071Y-95711190D02*
X132195071Y-95211190D01*
X132385547Y-95211190D01*
X132433166Y-95235000D01*
X132456976Y-95258809D01*
X132480785Y-95306428D01*
X132480785Y-95377857D01*
X132456976Y-95425476D01*
X132433166Y-95449285D01*
X132385547Y-95473095D01*
X132195071Y-95473095D01*
X133242690Y-95449285D02*
X133314119Y-95473095D01*
X133337928Y-95496904D01*
X133361738Y-95544523D01*
X133361738Y-95615952D01*
X133337928Y-95663571D01*
X133314119Y-95687380D01*
X133266500Y-95711190D01*
X133076023Y-95711190D01*
X133076023Y-95211190D01*
X133242690Y-95211190D01*
X133290309Y-95235000D01*
X133314119Y-95258809D01*
X133337928Y-95306428D01*
X133337928Y-95354047D01*
X133314119Y-95401666D01*
X133290309Y-95425476D01*
X133242690Y-95449285D01*
X133076023Y-95449285D01*
X133576023Y-95711190D02*
X133576023Y-95377857D01*
X133576023Y-95473095D02*
X133599833Y-95425476D01*
X133623642Y-95401666D01*
X133671261Y-95377857D01*
X133718880Y-95377857D01*
X134076023Y-95687380D02*
X134028404Y-95711190D01*
X133933166Y-95711190D01*
X133885547Y-95687380D01*
X133861738Y-95639761D01*
X133861738Y-95449285D01*
X133885547Y-95401666D01*
X133933166Y-95377857D01*
X134028404Y-95377857D01*
X134076023Y-95401666D01*
X134099833Y-95449285D01*
X134099833Y-95496904D01*
X133861738Y-95544523D01*
X134528404Y-95711190D02*
X134528404Y-95449285D01*
X134504595Y-95401666D01*
X134456976Y-95377857D01*
X134361738Y-95377857D01*
X134314119Y-95401666D01*
X134528404Y-95687380D02*
X134480785Y-95711190D01*
X134361738Y-95711190D01*
X134314119Y-95687380D01*
X134290309Y-95639761D01*
X134290309Y-95592142D01*
X134314119Y-95544523D01*
X134361738Y-95520714D01*
X134480785Y-95520714D01*
X134528404Y-95496904D01*
X134766500Y-95711190D02*
X134766500Y-95211190D01*
X134814119Y-95520714D02*
X134956976Y-95711190D01*
X134956976Y-95377857D02*
X134766500Y-95568333D01*
X135242690Y-95711190D02*
X135195071Y-95687380D01*
X135171261Y-95663571D01*
X135147452Y-95615952D01*
X135147452Y-95473095D01*
X135171261Y-95425476D01*
X135195071Y-95401666D01*
X135242690Y-95377857D01*
X135314119Y-95377857D01*
X135361738Y-95401666D01*
X135385547Y-95425476D01*
X135409357Y-95473095D01*
X135409357Y-95615952D01*
X135385547Y-95663571D01*
X135361738Y-95687380D01*
X135314119Y-95711190D01*
X135242690Y-95711190D01*
X135837928Y-95377857D02*
X135837928Y-95711190D01*
X135623642Y-95377857D02*
X135623642Y-95639761D01*
X135647452Y-95687380D01*
X135695071Y-95711190D01*
X135766500Y-95711190D01*
X135814119Y-95687380D01*
X135837928Y-95663571D01*
X136004595Y-95377857D02*
X136195071Y-95377857D01*
X136076023Y-95211190D02*
X136076023Y-95639761D01*
X136099833Y-95687380D01*
X136147452Y-95711190D01*
X136195071Y-95711190D01*
X126826023Y-96701666D02*
X126802214Y-96677857D01*
X126754595Y-96606428D01*
X126730785Y-96558809D01*
X126706976Y-96487380D01*
X126683166Y-96368333D01*
X126683166Y-96273095D01*
X126706976Y-96154047D01*
X126730785Y-96082619D01*
X126754595Y-96035000D01*
X126802214Y-95963571D01*
X126826023Y-95939761D01*
X127302214Y-96463571D02*
X127278404Y-96487380D01*
X127206976Y-96511190D01*
X127159357Y-96511190D01*
X127087928Y-96487380D01*
X127040309Y-96439761D01*
X127016500Y-96392142D01*
X126992690Y-96296904D01*
X126992690Y-96225476D01*
X127016500Y-96130238D01*
X127040309Y-96082619D01*
X127087928Y-96035000D01*
X127159357Y-96011190D01*
X127206976Y-96011190D01*
X127278404Y-96035000D01*
X127302214Y-96058809D01*
X127468880Y-96701666D02*
X127492690Y-96677857D01*
X127540309Y-96606428D01*
X127564119Y-96558809D01*
X127587928Y-96487380D01*
X127611738Y-96368333D01*
X127611738Y-96273095D01*
X127587928Y-96154047D01*
X127564119Y-96082619D01*
X127540309Y-96035000D01*
X127492690Y-95963571D01*
X127468880Y-95939761D01*
X128159357Y-96011190D02*
X128445071Y-96011190D01*
X128302214Y-96511190D02*
X128302214Y-96011190D01*
X128683166Y-96511190D02*
X128635547Y-96487380D01*
X128611738Y-96463571D01*
X128587928Y-96415952D01*
X128587928Y-96273095D01*
X128611738Y-96225476D01*
X128635547Y-96201666D01*
X128683166Y-96177857D01*
X128754595Y-96177857D01*
X128802214Y-96201666D01*
X128826023Y-96225476D01*
X128849833Y-96273095D01*
X128849833Y-96415952D01*
X128826023Y-96463571D01*
X128802214Y-96487380D01*
X128754595Y-96511190D01*
X128683166Y-96511190D01*
X129064119Y-96177857D02*
X129064119Y-96511190D01*
X129064119Y-96225476D02*
X129087928Y-96201666D01*
X129135547Y-96177857D01*
X129206976Y-96177857D01*
X129254595Y-96201666D01*
X129278404Y-96249285D01*
X129278404Y-96511190D01*
X129468880Y-96177857D02*
X129587928Y-96511190D01*
X129706976Y-96177857D02*
X129587928Y-96511190D01*
X129540309Y-96630238D01*
X129516500Y-96654047D01*
X129468880Y-96677857D01*
X130564119Y-96463571D02*
X130540309Y-96487380D01*
X130468880Y-96511190D01*
X130421261Y-96511190D01*
X130349833Y-96487380D01*
X130302214Y-96439761D01*
X130278404Y-96392142D01*
X130254595Y-96296904D01*
X130254595Y-96225476D01*
X130278404Y-96130238D01*
X130302214Y-96082619D01*
X130349833Y-96035000D01*
X130421261Y-96011190D01*
X130468880Y-96011190D01*
X130540309Y-96035000D01*
X130564119Y-96058809D01*
X130849833Y-96511190D02*
X130802214Y-96487380D01*
X130778404Y-96463571D01*
X130754595Y-96415952D01*
X130754595Y-96273095D01*
X130778404Y-96225476D01*
X130802214Y-96201666D01*
X130849833Y-96177857D01*
X130921261Y-96177857D01*
X130968880Y-96201666D01*
X130992690Y-96225476D01*
X131016500Y-96273095D01*
X131016500Y-96415952D01*
X130992690Y-96463571D01*
X130968880Y-96487380D01*
X130921261Y-96511190D01*
X130849833Y-96511190D01*
X131230785Y-96511190D02*
X131230785Y-96177857D01*
X131230785Y-96273095D02*
X131254595Y-96225476D01*
X131278404Y-96201666D01*
X131326023Y-96177857D01*
X131373642Y-96177857D01*
X131516500Y-96487380D02*
X131564119Y-96511190D01*
X131659357Y-96511190D01*
X131706976Y-96487380D01*
X131730785Y-96439761D01*
X131730785Y-96415952D01*
X131706976Y-96368333D01*
X131659357Y-96344523D01*
X131587928Y-96344523D01*
X131540309Y-96320714D01*
X131516500Y-96273095D01*
X131516500Y-96249285D01*
X131540309Y-96201666D01*
X131587928Y-96177857D01*
X131659357Y-96177857D01*
X131706976Y-96201666D01*
X131873642Y-96177857D02*
X132064119Y-96177857D01*
X131945071Y-96011190D02*
X131945071Y-96439761D01*
X131968880Y-96487380D01*
X132016500Y-96511190D01*
X132064119Y-96511190D01*
X132421261Y-96487380D02*
X132373642Y-96511190D01*
X132278404Y-96511190D01*
X132230785Y-96487380D01*
X132206976Y-96439761D01*
X132206976Y-96249285D01*
X132230785Y-96201666D01*
X132278404Y-96177857D01*
X132373642Y-96177857D01*
X132421261Y-96201666D01*
X132445071Y-96249285D01*
X132445071Y-96296904D01*
X132206976Y-96344523D01*
X132659357Y-96177857D02*
X132659357Y-96511190D01*
X132659357Y-96225476D02*
X132683166Y-96201666D01*
X132730785Y-96177857D01*
X132802214Y-96177857D01*
X132849833Y-96201666D01*
X132873642Y-96249285D01*
X132873642Y-96511190D01*
X133468880Y-96058809D02*
X133492690Y-96035000D01*
X133540309Y-96011190D01*
X133659357Y-96011190D01*
X133706976Y-96035000D01*
X133730785Y-96058809D01*
X133754595Y-96106428D01*
X133754595Y-96154047D01*
X133730785Y-96225476D01*
X133445071Y-96511190D01*
X133754595Y-96511190D01*
X134064119Y-96011190D02*
X134111738Y-96011190D01*
X134159357Y-96035000D01*
X134183166Y-96058809D01*
X134206976Y-96106428D01*
X134230785Y-96201666D01*
X134230785Y-96320714D01*
X134206976Y-96415952D01*
X134183166Y-96463571D01*
X134159357Y-96487380D01*
X134111738Y-96511190D01*
X134064119Y-96511190D01*
X134016500Y-96487380D01*
X133992690Y-96463571D01*
X133968880Y-96415952D01*
X133945071Y-96320714D01*
X133945071Y-96201666D01*
X133968880Y-96106428D01*
X133992690Y-96058809D01*
X134016500Y-96035000D01*
X134064119Y-96011190D01*
X134706976Y-96511190D02*
X134421261Y-96511190D01*
X134564119Y-96511190D02*
X134564119Y-96011190D01*
X134516500Y-96082619D01*
X134468880Y-96130238D01*
X134421261Y-96154047D01*
X134945071Y-96511190D02*
X135040309Y-96511190D01*
X135087928Y-96487380D01*
X135111738Y-96463571D01*
X135159357Y-96392142D01*
X135183166Y-96296904D01*
X135183166Y-96106428D01*
X135159357Y-96058809D01*
X135135547Y-96035000D01*
X135087928Y-96011190D01*
X134992690Y-96011190D01*
X134945071Y-96035000D01*
X134921261Y-96058809D01*
X134897452Y-96106428D01*
X134897452Y-96225476D01*
X134921261Y-96273095D01*
X134945071Y-96296904D01*
X134992690Y-96320714D01*
X135087928Y-96320714D01*
X135135547Y-96296904D01*
X135159357Y-96273095D01*
X135183166Y-96225476D01*
X135421261Y-96487380D02*
X135421261Y-96511190D01*
X135397452Y-96558809D01*
X135373642Y-96582619D01*
X135968880Y-96177857D02*
X136087928Y-96511190D01*
X136206976Y-96177857D01*
X136659357Y-96511190D02*
X136373642Y-96511190D01*
X136516500Y-96511190D02*
X136516500Y-96011190D01*
X136468880Y-96082619D01*
X136421261Y-96130238D01*
X136373642Y-96154047D01*
X136873642Y-96463571D02*
X136897452Y-96487380D01*
X136873642Y-96511190D01*
X136849833Y-96487380D01*
X136873642Y-96463571D01*
X136873642Y-96511190D01*
X137206976Y-96011190D02*
X137254595Y-96011190D01*
X137302214Y-96035000D01*
X137326023Y-96058809D01*
X137349833Y-96106428D01*
X137373642Y-96201666D01*
X137373642Y-96320714D01*
X137349833Y-96415952D01*
X137326023Y-96463571D01*
X137302214Y-96487380D01*
X137254595Y-96511190D01*
X137206976Y-96511190D01*
X137159357Y-96487380D01*
X137135547Y-96463571D01*
X137111738Y-96415952D01*
X137087928Y-96320714D01*
X137087928Y-96201666D01*
X137111738Y-96106428D01*
X137135547Y-96058809D01*
X137159357Y-96035000D01*
X137206976Y-96011190D01*
D12*
X134505714Y-72124928D02*
X134220000Y-72124928D01*
X134191428Y-72410642D01*
X134220000Y-72382071D01*
X134277142Y-72353500D01*
X134420000Y-72353500D01*
X134477142Y-72382071D01*
X134505714Y-72410642D01*
X134534285Y-72467785D01*
X134534285Y-72610642D01*
X134505714Y-72667785D01*
X134477142Y-72696357D01*
X134420000Y-72724928D01*
X134277142Y-72724928D01*
X134220000Y-72696357D01*
X134191428Y-72667785D01*
X134705714Y-72124928D02*
X134905714Y-72724928D01*
X135105714Y-72124928D01*
X131622857Y-72153500D02*
X131565714Y-72124928D01*
X131480000Y-72124928D01*
X131394285Y-72153500D01*
X131337142Y-72210642D01*
X131308571Y-72267785D01*
X131280000Y-72382071D01*
X131280000Y-72467785D01*
X131308571Y-72582071D01*
X131337142Y-72639214D01*
X131394285Y-72696357D01*
X131480000Y-72724928D01*
X131537142Y-72724928D01*
X131622857Y-72696357D01*
X131651428Y-72667785D01*
X131651428Y-72467785D01*
X131537142Y-72467785D01*
X131908571Y-72724928D02*
X131908571Y-72124928D01*
X132251428Y-72724928D01*
X132251428Y-72124928D01*
X132537142Y-72724928D02*
X132537142Y-72124928D01*
X132680000Y-72124928D01*
X132765714Y-72153500D01*
X132822857Y-72210642D01*
X132851428Y-72267785D01*
X132880000Y-72382071D01*
X132880000Y-72467785D01*
X132851428Y-72582071D01*
X132822857Y-72639214D01*
X132765714Y-72696357D01*
X132680000Y-72724928D01*
X132537142Y-72724928D01*
X128590785Y-72124928D02*
X128962214Y-72124928D01*
X128762214Y-72353500D01*
X128847928Y-72353500D01*
X128905071Y-72382071D01*
X128933642Y-72410642D01*
X128962214Y-72467785D01*
X128962214Y-72610642D01*
X128933642Y-72667785D01*
X128905071Y-72696357D01*
X128847928Y-72724928D01*
X128676500Y-72724928D01*
X128619357Y-72696357D01*
X128590785Y-72667785D01*
X129219357Y-72667785D02*
X129247928Y-72696357D01*
X129219357Y-72724928D01*
X129190785Y-72696357D01*
X129219357Y-72667785D01*
X129219357Y-72724928D01*
X129447928Y-72124928D02*
X129819357Y-72124928D01*
X129619357Y-72353500D01*
X129705071Y-72353500D01*
X129762214Y-72382071D01*
X129790785Y-72410642D01*
X129819357Y-72467785D01*
X129819357Y-72610642D01*
X129790785Y-72667785D01*
X129762214Y-72696357D01*
X129705071Y-72724928D01*
X129533642Y-72724928D01*
X129476500Y-72696357D01*
X129447928Y-72667785D01*
X129990785Y-72124928D02*
X130190785Y-72724928D01*
X130390785Y-72124928D01*
D10*
X137231428Y-83415238D02*
X137183809Y-83558095D01*
X137136190Y-83605714D01*
X137040952Y-83653333D01*
X136898095Y-83653333D01*
X136802857Y-83605714D01*
X136755238Y-83558095D01*
X136707619Y-83462857D01*
X136707619Y-83081904D01*
X137707619Y-83081904D01*
X137707619Y-83415238D01*
X137660000Y-83510476D01*
X137612380Y-83558095D01*
X137517142Y-83605714D01*
X137421904Y-83605714D01*
X137326666Y-83558095D01*
X137279047Y-83510476D01*
X137231428Y-83415238D01*
X137231428Y-83081904D01*
X137374285Y-84510476D02*
X136707619Y-84510476D01*
X137755238Y-84272380D02*
X137040952Y-84034285D01*
X137040952Y-84653333D01*
X137231428Y-91035238D02*
X137183809Y-91178095D01*
X137136190Y-91225714D01*
X137040952Y-91273333D01*
X136898095Y-91273333D01*
X136802857Y-91225714D01*
X136755238Y-91178095D01*
X136707619Y-91082857D01*
X136707619Y-90701904D01*
X137707619Y-90701904D01*
X137707619Y-91035238D01*
X137660000Y-91130476D01*
X137612380Y-91178095D01*
X137517142Y-91225714D01*
X137421904Y-91225714D01*
X137326666Y-91178095D01*
X137279047Y-91130476D01*
X137231428Y-91035238D01*
X137231428Y-90701904D01*
X137707619Y-91606666D02*
X137707619Y-92273333D01*
X136707619Y-91844761D01*
X137231428Y-85955238D02*
X137183809Y-86098095D01*
X137136190Y-86145714D01*
X137040952Y-86193333D01*
X136898095Y-86193333D01*
X136802857Y-86145714D01*
X136755238Y-86098095D01*
X136707619Y-86002857D01*
X136707619Y-85621904D01*
X137707619Y-85621904D01*
X137707619Y-85955238D01*
X137660000Y-86050476D01*
X137612380Y-86098095D01*
X137517142Y-86145714D01*
X137421904Y-86145714D01*
X137326666Y-86098095D01*
X137279047Y-86050476D01*
X137231428Y-85955238D01*
X137231428Y-85621904D01*
X137707619Y-87098095D02*
X137707619Y-86621904D01*
X137231428Y-86574285D01*
X137279047Y-86621904D01*
X137326666Y-86717142D01*
X137326666Y-86955238D01*
X137279047Y-87050476D01*
X137231428Y-87098095D01*
X137136190Y-87145714D01*
X136898095Y-87145714D01*
X136802857Y-87098095D01*
X136755238Y-87050476D01*
X136707619Y-86955238D01*
X136707619Y-86717142D01*
X136755238Y-86621904D01*
X136802857Y-86574285D01*
X137180628Y-93575238D02*
X137133009Y-93718095D01*
X137085390Y-93765714D01*
X136990152Y-93813333D01*
X136847295Y-93813333D01*
X136752057Y-93765714D01*
X136704438Y-93718095D01*
X136656819Y-93622857D01*
X136656819Y-93241904D01*
X137656819Y-93241904D01*
X137656819Y-93575238D01*
X137609200Y-93670476D01*
X137561580Y-93718095D01*
X137466342Y-93765714D01*
X137371104Y-93765714D01*
X137275866Y-93718095D01*
X137228247Y-93670476D01*
X137180628Y-93575238D01*
X137180628Y-93241904D01*
X137228247Y-94384761D02*
X137275866Y-94289523D01*
X137323485Y-94241904D01*
X137418723Y-94194285D01*
X137466342Y-94194285D01*
X137561580Y-94241904D01*
X137609200Y-94289523D01*
X137656819Y-94384761D01*
X137656819Y-94575238D01*
X137609200Y-94670476D01*
X137561580Y-94718095D01*
X137466342Y-94765714D01*
X137418723Y-94765714D01*
X137323485Y-94718095D01*
X137275866Y-94670476D01*
X137228247Y-94575238D01*
X137228247Y-94384761D01*
X137180628Y-94289523D01*
X137133009Y-94241904D01*
X137037771Y-94194285D01*
X136847295Y-94194285D01*
X136752057Y-94241904D01*
X136704438Y-94289523D01*
X136656819Y-94384761D01*
X136656819Y-94575238D01*
X136704438Y-94670476D01*
X136752057Y-94718095D01*
X136847295Y-94765714D01*
X137037771Y-94765714D01*
X137133009Y-94718095D01*
X137180628Y-94670476D01*
X137228247Y-94575238D01*
X137231428Y-75795238D02*
X137183809Y-75938095D01*
X137136190Y-75985714D01*
X137040952Y-76033333D01*
X136898095Y-76033333D01*
X136802857Y-75985714D01*
X136755238Y-75938095D01*
X136707619Y-75842857D01*
X136707619Y-75461904D01*
X137707619Y-75461904D01*
X137707619Y-75795238D01*
X137660000Y-75890476D01*
X137612380Y-75938095D01*
X137517142Y-75985714D01*
X137421904Y-75985714D01*
X137326666Y-75938095D01*
X137279047Y-75890476D01*
X137231428Y-75795238D01*
X137231428Y-75461904D01*
X136707619Y-76985714D02*
X136707619Y-76414285D01*
X136707619Y-76700000D02*
X137707619Y-76700000D01*
X137564761Y-76604761D01*
X137469523Y-76509523D01*
X137421904Y-76414285D01*
X137231428Y-78335238D02*
X137183809Y-78478095D01*
X137136190Y-78525714D01*
X137040952Y-78573333D01*
X136898095Y-78573333D01*
X136802857Y-78525714D01*
X136755238Y-78478095D01*
X136707619Y-78382857D01*
X136707619Y-78001904D01*
X137707619Y-78001904D01*
X137707619Y-78335238D01*
X137660000Y-78430476D01*
X137612380Y-78478095D01*
X137517142Y-78525714D01*
X137421904Y-78525714D01*
X137326666Y-78478095D01*
X137279047Y-78430476D01*
X137231428Y-78335238D01*
X137231428Y-78001904D01*
X137612380Y-78954285D02*
X137660000Y-79001904D01*
X137707619Y-79097142D01*
X137707619Y-79335238D01*
X137660000Y-79430476D01*
X137612380Y-79478095D01*
X137517142Y-79525714D01*
X137421904Y-79525714D01*
X137279047Y-79478095D01*
X136707619Y-78906666D01*
X136707619Y-79525714D01*
X137231428Y-88495238D02*
X137183809Y-88638095D01*
X137136190Y-88685714D01*
X137040952Y-88733333D01*
X136898095Y-88733333D01*
X136802857Y-88685714D01*
X136755238Y-88638095D01*
X136707619Y-88542857D01*
X136707619Y-88161904D01*
X137707619Y-88161904D01*
X137707619Y-88495238D01*
X137660000Y-88590476D01*
X137612380Y-88638095D01*
X137517142Y-88685714D01*
X137421904Y-88685714D01*
X137326666Y-88638095D01*
X137279047Y-88590476D01*
X137231428Y-88495238D01*
X137231428Y-88161904D01*
X137707619Y-89590476D02*
X137707619Y-89400000D01*
X137660000Y-89304761D01*
X137612380Y-89257142D01*
X137469523Y-89161904D01*
X137279047Y-89114285D01*
X136898095Y-89114285D01*
X136802857Y-89161904D01*
X136755238Y-89209523D01*
X136707619Y-89304761D01*
X136707619Y-89495238D01*
X136755238Y-89590476D01*
X136802857Y-89638095D01*
X136898095Y-89685714D01*
X137136190Y-89685714D01*
X137231428Y-89638095D01*
X137279047Y-89590476D01*
X137326666Y-89495238D01*
X137326666Y-89304761D01*
X137279047Y-89209523D01*
X137231428Y-89161904D01*
X137136190Y-89114285D01*
X137231428Y-80875238D02*
X137183809Y-81018095D01*
X137136190Y-81065714D01*
X137040952Y-81113333D01*
X136898095Y-81113333D01*
X136802857Y-81065714D01*
X136755238Y-81018095D01*
X136707619Y-80922857D01*
X136707619Y-80541904D01*
X137707619Y-80541904D01*
X137707619Y-80875238D01*
X137660000Y-80970476D01*
X137612380Y-81018095D01*
X137517142Y-81065714D01*
X137421904Y-81065714D01*
X137326666Y-81018095D01*
X137279047Y-80970476D01*
X137231428Y-80875238D01*
X137231428Y-80541904D01*
X137707619Y-81446666D02*
X137707619Y-82065714D01*
X137326666Y-81732380D01*
X137326666Y-81875238D01*
X137279047Y-81970476D01*
X137231428Y-82018095D01*
X137136190Y-82065714D01*
X136898095Y-82065714D01*
X136802857Y-82018095D01*
X136755238Y-81970476D01*
X136707619Y-81875238D01*
X136707619Y-81589523D01*
X136755238Y-81494285D01*
X136802857Y-81446666D01*
X126833333Y-93265714D02*
X126833333Y-93741904D01*
X126547619Y-93170476D02*
X127547619Y-93503809D01*
X126547619Y-93837142D01*
X127119047Y-94313333D02*
X127166666Y-94218095D01*
X127214285Y-94170476D01*
X127309523Y-94122857D01*
X127357142Y-94122857D01*
X127452380Y-94170476D01*
X127500000Y-94218095D01*
X127547619Y-94313333D01*
X127547619Y-94503809D01*
X127500000Y-94599047D01*
X127452380Y-94646666D01*
X127357142Y-94694285D01*
X127309523Y-94694285D01*
X127214285Y-94646666D01*
X127166666Y-94599047D01*
X127119047Y-94503809D01*
X127119047Y-94313333D01*
X127071428Y-94218095D01*
X127023809Y-94170476D01*
X126928571Y-94122857D01*
X126738095Y-94122857D01*
X126642857Y-94170476D01*
X126595238Y-94218095D01*
X126547619Y-94313333D01*
X126547619Y-94503809D01*
X126595238Y-94599047D01*
X126642857Y-94646666D01*
X126738095Y-94694285D01*
X126928571Y-94694285D01*
X127023809Y-94646666D01*
X127071428Y-94599047D01*
X127119047Y-94503809D01*
X126833333Y-90725714D02*
X126833333Y-91201904D01*
X126547619Y-90630476D02*
X127547619Y-90963809D01*
X126547619Y-91297142D01*
X127547619Y-91535238D02*
X127547619Y-92201904D01*
X126547619Y-91773333D01*
X126833333Y-88185714D02*
X126833333Y-88661904D01*
X126547619Y-88090476D02*
X127547619Y-88423809D01*
X126547619Y-88757142D01*
X127547619Y-89519047D02*
X127547619Y-89328571D01*
X127500000Y-89233333D01*
X127452380Y-89185714D01*
X127309523Y-89090476D01*
X127119047Y-89042857D01*
X126738095Y-89042857D01*
X126642857Y-89090476D01*
X126595238Y-89138095D01*
X126547619Y-89233333D01*
X126547619Y-89423809D01*
X126595238Y-89519047D01*
X126642857Y-89566666D01*
X126738095Y-89614285D01*
X126976190Y-89614285D01*
X127071428Y-89566666D01*
X127119047Y-89519047D01*
X127166666Y-89423809D01*
X127166666Y-89233333D01*
X127119047Y-89138095D01*
X127071428Y-89090476D01*
X126976190Y-89042857D01*
X126833333Y-85645714D02*
X126833333Y-86121904D01*
X126547619Y-85550476D02*
X127547619Y-85883809D01*
X126547619Y-86217142D01*
X127547619Y-87026666D02*
X127547619Y-86550476D01*
X127071428Y-86502857D01*
X127119047Y-86550476D01*
X127166666Y-86645714D01*
X127166666Y-86883809D01*
X127119047Y-86979047D01*
X127071428Y-87026666D01*
X126976190Y-87074285D01*
X126738095Y-87074285D01*
X126642857Y-87026666D01*
X126595238Y-86979047D01*
X126547619Y-86883809D01*
X126547619Y-86645714D01*
X126595238Y-86550476D01*
X126642857Y-86502857D01*
X126833333Y-78025714D02*
X126833333Y-78501904D01*
X126547619Y-77930476D02*
X127547619Y-78263809D01*
X126547619Y-78597142D01*
X127452380Y-78882857D02*
X127500000Y-78930476D01*
X127547619Y-79025714D01*
X127547619Y-79263809D01*
X127500000Y-79359047D01*
X127452380Y-79406666D01*
X127357142Y-79454285D01*
X127261904Y-79454285D01*
X127119047Y-79406666D01*
X126547619Y-78835238D01*
X126547619Y-79454285D01*
X126833333Y-75485714D02*
X126833333Y-75961904D01*
X126547619Y-75390476D02*
X127547619Y-75723809D01*
X126547619Y-76057142D01*
X126547619Y-76914285D02*
X126547619Y-76342857D01*
X126547619Y-76628571D02*
X127547619Y-76628571D01*
X127404761Y-76533333D01*
X127309523Y-76438095D01*
X127261904Y-76342857D01*
D13*
G04 #@! TO.C,C1*
X129278748Y-79196000D02*
X129801252Y-79196000D01*
X129278748Y-77776000D02*
X129801252Y-77776000D01*
G04 #@! TO.C,C2*
X134358748Y-80570000D02*
X134881252Y-80570000D01*
X134358748Y-81990000D02*
X134881252Y-81990000D01*
G04 #@! TO.C,J1*
X125790000Y-74870000D02*
X123130000Y-74870000D01*
X125790000Y-92710000D02*
X125790000Y-74870000D01*
X123130000Y-92710000D02*
X123130000Y-74870000D01*
X125790000Y-92710000D02*
X123130000Y-92710000D01*
X125790000Y-93980000D02*
X125790000Y-95310000D01*
X125790000Y-95310000D02*
X124460000Y-95310000D01*
G04 #@! TO.C,J2*
X141030000Y-95310000D02*
X139700000Y-95310000D01*
X141030000Y-93980000D02*
X141030000Y-95310000D01*
X141030000Y-92710000D02*
X138370000Y-92710000D01*
X138370000Y-92710000D02*
X138370000Y-74870000D01*
X141030000Y-92710000D02*
X141030000Y-74870000D01*
X141030000Y-74870000D02*
X138370000Y-74870000D01*
G04 #@! TO.C,J3*
X135950000Y-76006000D02*
X135950000Y-73346000D01*
X130810000Y-76006000D02*
X135950000Y-76006000D01*
X130810000Y-73346000D02*
X135950000Y-73346000D01*
X130810000Y-76006000D02*
X130810000Y-73346000D01*
X129540000Y-76006000D02*
X128210000Y-76006000D01*
X128210000Y-76006000D02*
X128210000Y-74676000D01*
D10*
G04 #@! TO.C,U1*
X129855000Y-90064000D02*
X134305000Y-90064000D01*
X128330000Y-83164000D02*
X134305000Y-83164000D01*
D13*
G04 #@! TO.C,R1*
X134881252Y-79196000D02*
X134358748Y-79196000D01*
X134881252Y-77776000D02*
X134358748Y-77776000D01*
G04 #@! TO.C,C1*
D14*
X129456666Y-79998071D02*
X129432857Y-80021880D01*
X129361428Y-80045690D01*
X129313809Y-80045690D01*
X129242380Y-80021880D01*
X129194761Y-79974261D01*
X129170952Y-79926642D01*
X129147142Y-79831404D01*
X129147142Y-79759976D01*
X129170952Y-79664738D01*
X129194761Y-79617119D01*
X129242380Y-79569500D01*
X129313809Y-79545690D01*
X129361428Y-79545690D01*
X129432857Y-79569500D01*
X129456666Y-79593309D01*
X129932857Y-80045690D02*
X129647142Y-80045690D01*
X129790000Y-80045690D02*
X129790000Y-79545690D01*
X129742380Y-79617119D01*
X129694761Y-79664738D01*
X129647142Y-79688547D01*
G04 #@! TO.C,C2*
X134536666Y-82792071D02*
X134512857Y-82815880D01*
X134441428Y-82839690D01*
X134393809Y-82839690D01*
X134322380Y-82815880D01*
X134274761Y-82768261D01*
X134250952Y-82720642D01*
X134227142Y-82625404D01*
X134227142Y-82553976D01*
X134250952Y-82458738D01*
X134274761Y-82411119D01*
X134322380Y-82363500D01*
X134393809Y-82339690D01*
X134441428Y-82339690D01*
X134512857Y-82363500D01*
X134536666Y-82387309D01*
X134727142Y-82387309D02*
X134750952Y-82363500D01*
X134798571Y-82339690D01*
X134917619Y-82339690D01*
X134965238Y-82363500D01*
X134989047Y-82387309D01*
X135012857Y-82434928D01*
X135012857Y-82482547D01*
X134989047Y-82553976D01*
X134703333Y-82839690D01*
X135012857Y-82839690D01*
G04 #@! TO.C,R1*
X134663666Y-80109190D02*
X134497000Y-79871095D01*
X134377952Y-80109190D02*
X134377952Y-79609190D01*
X134568428Y-79609190D01*
X134616047Y-79633000D01*
X134639857Y-79656809D01*
X134663666Y-79704428D01*
X134663666Y-79775857D01*
X134639857Y-79823476D01*
X134616047Y-79847285D01*
X134568428Y-79871095D01*
X134377952Y-79871095D01*
X135139857Y-80109190D02*
X134854142Y-80109190D01*
X134997000Y-80109190D02*
X134997000Y-79609190D01*
X134949380Y-79680619D01*
X134901761Y-79728238D01*
X134854142Y-79752047D01*
G04 #@! TD*
M02*
