G04 #@! TF.GenerationSoftware,KiCad,Pcbnew,(5.0.2)-1*
G04 #@! TF.CreationDate,2019-08-04T21:59:47-04:00*
G04 #@! TF.ProjectId,LSF0108PWR_Breakout,4c534630-3130-4385-9057-525f42726561,rev?*
G04 #@! TF.SameCoordinates,Original*
G04 #@! TF.FileFunction,Copper,L1,Top*
G04 #@! TF.FilePolarity,Positive*
%FSLAX46Y46*%
G04 Gerber Fmt 4.6, Leading zero omitted, Abs format (unit mm)*
G04 Created by KiCad (PCBNEW (5.0.2)-1) date 8/4/2019 9:59:47 PM*
%MOMM*%
%LPD*%
G01*
G04 APERTURE LIST*
G04 #@! TA.AperFunction,Conductor*
%ADD10C,0.100000*%
G04 #@! TD*
G04 #@! TA.AperFunction,SMDPad,CuDef*
%ADD11C,1.150000*%
G04 #@! TD*
G04 #@! TA.AperFunction,ComponentPad*
%ADD12R,1.700000X1.700000*%
G04 #@! TD*
G04 #@! TA.AperFunction,ComponentPad*
%ADD13O,1.700000X1.700000*%
G04 #@! TD*
G04 #@! TA.AperFunction,SMDPad,CuDef*
%ADD14R,1.450000X0.450000*%
G04 #@! TD*
G04 #@! TA.AperFunction,ViaPad*
%ADD15C,0.800000*%
G04 #@! TD*
G04 #@! TA.AperFunction,Conductor*
%ADD16C,0.600000*%
G04 #@! TD*
G04 #@! TA.AperFunction,Conductor*
%ADD17C,0.400000*%
G04 #@! TD*
G04 #@! TA.AperFunction,Conductor*
%ADD18C,0.254000*%
G04 #@! TD*
G04 APERTURE END LIST*
D10*
G04 #@! TO.N,GND*
G04 #@! TO.C,C1*
G36*
X130914505Y-77787204D02*
X130938773Y-77790804D01*
X130962572Y-77796765D01*
X130985671Y-77805030D01*
X131007850Y-77815520D01*
X131028893Y-77828132D01*
X131048599Y-77842747D01*
X131066777Y-77859223D01*
X131083253Y-77877401D01*
X131097868Y-77897107D01*
X131110480Y-77918150D01*
X131120970Y-77940329D01*
X131129235Y-77963428D01*
X131135196Y-77987227D01*
X131138796Y-78011495D01*
X131140000Y-78035999D01*
X131140000Y-78936001D01*
X131138796Y-78960505D01*
X131135196Y-78984773D01*
X131129235Y-79008572D01*
X131120970Y-79031671D01*
X131110480Y-79053850D01*
X131097868Y-79074893D01*
X131083253Y-79094599D01*
X131066777Y-79112777D01*
X131048599Y-79129253D01*
X131028893Y-79143868D01*
X131007850Y-79156480D01*
X130985671Y-79166970D01*
X130962572Y-79175235D01*
X130938773Y-79181196D01*
X130914505Y-79184796D01*
X130890001Y-79186000D01*
X130239999Y-79186000D01*
X130215495Y-79184796D01*
X130191227Y-79181196D01*
X130167428Y-79175235D01*
X130144329Y-79166970D01*
X130122150Y-79156480D01*
X130101107Y-79143868D01*
X130081401Y-79129253D01*
X130063223Y-79112777D01*
X130046747Y-79094599D01*
X130032132Y-79074893D01*
X130019520Y-79053850D01*
X130009030Y-79031671D01*
X130000765Y-79008572D01*
X129994804Y-78984773D01*
X129991204Y-78960505D01*
X129990000Y-78936001D01*
X129990000Y-78035999D01*
X129991204Y-78011495D01*
X129994804Y-77987227D01*
X130000765Y-77963428D01*
X130009030Y-77940329D01*
X130019520Y-77918150D01*
X130032132Y-77897107D01*
X130046747Y-77877401D01*
X130063223Y-77859223D01*
X130081401Y-77842747D01*
X130101107Y-77828132D01*
X130122150Y-77815520D01*
X130144329Y-77805030D01*
X130167428Y-77796765D01*
X130191227Y-77790804D01*
X130215495Y-77787204D01*
X130239999Y-77786000D01*
X130890001Y-77786000D01*
X130914505Y-77787204D01*
X130914505Y-77787204D01*
G37*
D11*
G04 #@! TD*
G04 #@! TO.P,C1,2*
G04 #@! TO.N,GND*
X130565000Y-78486000D03*
D10*
G04 #@! TO.N,Net-(C1-Pad1)*
G04 #@! TO.C,C1*
G36*
X128864505Y-77787204D02*
X128888773Y-77790804D01*
X128912572Y-77796765D01*
X128935671Y-77805030D01*
X128957850Y-77815520D01*
X128978893Y-77828132D01*
X128998599Y-77842747D01*
X129016777Y-77859223D01*
X129033253Y-77877401D01*
X129047868Y-77897107D01*
X129060480Y-77918150D01*
X129070970Y-77940329D01*
X129079235Y-77963428D01*
X129085196Y-77987227D01*
X129088796Y-78011495D01*
X129090000Y-78035999D01*
X129090000Y-78936001D01*
X129088796Y-78960505D01*
X129085196Y-78984773D01*
X129079235Y-79008572D01*
X129070970Y-79031671D01*
X129060480Y-79053850D01*
X129047868Y-79074893D01*
X129033253Y-79094599D01*
X129016777Y-79112777D01*
X128998599Y-79129253D01*
X128978893Y-79143868D01*
X128957850Y-79156480D01*
X128935671Y-79166970D01*
X128912572Y-79175235D01*
X128888773Y-79181196D01*
X128864505Y-79184796D01*
X128840001Y-79186000D01*
X128189999Y-79186000D01*
X128165495Y-79184796D01*
X128141227Y-79181196D01*
X128117428Y-79175235D01*
X128094329Y-79166970D01*
X128072150Y-79156480D01*
X128051107Y-79143868D01*
X128031401Y-79129253D01*
X128013223Y-79112777D01*
X127996747Y-79094599D01*
X127982132Y-79074893D01*
X127969520Y-79053850D01*
X127959030Y-79031671D01*
X127950765Y-79008572D01*
X127944804Y-78984773D01*
X127941204Y-78960505D01*
X127940000Y-78936001D01*
X127940000Y-78035999D01*
X127941204Y-78011495D01*
X127944804Y-77987227D01*
X127950765Y-77963428D01*
X127959030Y-77940329D01*
X127969520Y-77918150D01*
X127982132Y-77897107D01*
X127996747Y-77877401D01*
X128013223Y-77859223D01*
X128031401Y-77842747D01*
X128051107Y-77828132D01*
X128072150Y-77815520D01*
X128094329Y-77805030D01*
X128117428Y-77796765D01*
X128141227Y-77790804D01*
X128165495Y-77787204D01*
X128189999Y-77786000D01*
X128840001Y-77786000D01*
X128864505Y-77787204D01*
X128864505Y-77787204D01*
G37*
D11*
G04 #@! TD*
G04 #@! TO.P,C1,1*
G04 #@! TO.N,Net-(C1-Pad1)*
X128515000Y-78486000D03*
D10*
G04 #@! TO.N,GND*
G04 #@! TO.C,C2*
G36*
X133944505Y-80581204D02*
X133968773Y-80584804D01*
X133992572Y-80590765D01*
X134015671Y-80599030D01*
X134037850Y-80609520D01*
X134058893Y-80622132D01*
X134078599Y-80636747D01*
X134096777Y-80653223D01*
X134113253Y-80671401D01*
X134127868Y-80691107D01*
X134140480Y-80712150D01*
X134150970Y-80734329D01*
X134159235Y-80757428D01*
X134165196Y-80781227D01*
X134168796Y-80805495D01*
X134170000Y-80829999D01*
X134170000Y-81730001D01*
X134168796Y-81754505D01*
X134165196Y-81778773D01*
X134159235Y-81802572D01*
X134150970Y-81825671D01*
X134140480Y-81847850D01*
X134127868Y-81868893D01*
X134113253Y-81888599D01*
X134096777Y-81906777D01*
X134078599Y-81923253D01*
X134058893Y-81937868D01*
X134037850Y-81950480D01*
X134015671Y-81960970D01*
X133992572Y-81969235D01*
X133968773Y-81975196D01*
X133944505Y-81978796D01*
X133920001Y-81980000D01*
X133269999Y-81980000D01*
X133245495Y-81978796D01*
X133221227Y-81975196D01*
X133197428Y-81969235D01*
X133174329Y-81960970D01*
X133152150Y-81950480D01*
X133131107Y-81937868D01*
X133111401Y-81923253D01*
X133093223Y-81906777D01*
X133076747Y-81888599D01*
X133062132Y-81868893D01*
X133049520Y-81847850D01*
X133039030Y-81825671D01*
X133030765Y-81802572D01*
X133024804Y-81778773D01*
X133021204Y-81754505D01*
X133020000Y-81730001D01*
X133020000Y-80829999D01*
X133021204Y-80805495D01*
X133024804Y-80781227D01*
X133030765Y-80757428D01*
X133039030Y-80734329D01*
X133049520Y-80712150D01*
X133062132Y-80691107D01*
X133076747Y-80671401D01*
X133093223Y-80653223D01*
X133111401Y-80636747D01*
X133131107Y-80622132D01*
X133152150Y-80609520D01*
X133174329Y-80599030D01*
X133197428Y-80590765D01*
X133221227Y-80584804D01*
X133245495Y-80581204D01*
X133269999Y-80580000D01*
X133920001Y-80580000D01*
X133944505Y-80581204D01*
X133944505Y-80581204D01*
G37*
D11*
G04 #@! TD*
G04 #@! TO.P,C2,1*
G04 #@! TO.N,GND*
X133595000Y-81280000D03*
D10*
G04 #@! TO.N,Net-(C2-Pad2)*
G04 #@! TO.C,C2*
G36*
X135994505Y-80581204D02*
X136018773Y-80584804D01*
X136042572Y-80590765D01*
X136065671Y-80599030D01*
X136087850Y-80609520D01*
X136108893Y-80622132D01*
X136128599Y-80636747D01*
X136146777Y-80653223D01*
X136163253Y-80671401D01*
X136177868Y-80691107D01*
X136190480Y-80712150D01*
X136200970Y-80734329D01*
X136209235Y-80757428D01*
X136215196Y-80781227D01*
X136218796Y-80805495D01*
X136220000Y-80829999D01*
X136220000Y-81730001D01*
X136218796Y-81754505D01*
X136215196Y-81778773D01*
X136209235Y-81802572D01*
X136200970Y-81825671D01*
X136190480Y-81847850D01*
X136177868Y-81868893D01*
X136163253Y-81888599D01*
X136146777Y-81906777D01*
X136128599Y-81923253D01*
X136108893Y-81937868D01*
X136087850Y-81950480D01*
X136065671Y-81960970D01*
X136042572Y-81969235D01*
X136018773Y-81975196D01*
X135994505Y-81978796D01*
X135970001Y-81980000D01*
X135319999Y-81980000D01*
X135295495Y-81978796D01*
X135271227Y-81975196D01*
X135247428Y-81969235D01*
X135224329Y-81960970D01*
X135202150Y-81950480D01*
X135181107Y-81937868D01*
X135161401Y-81923253D01*
X135143223Y-81906777D01*
X135126747Y-81888599D01*
X135112132Y-81868893D01*
X135099520Y-81847850D01*
X135089030Y-81825671D01*
X135080765Y-81802572D01*
X135074804Y-81778773D01*
X135071204Y-81754505D01*
X135070000Y-81730001D01*
X135070000Y-80829999D01*
X135071204Y-80805495D01*
X135074804Y-80781227D01*
X135080765Y-80757428D01*
X135089030Y-80734329D01*
X135099520Y-80712150D01*
X135112132Y-80691107D01*
X135126747Y-80671401D01*
X135143223Y-80653223D01*
X135161401Y-80636747D01*
X135181107Y-80622132D01*
X135202150Y-80609520D01*
X135224329Y-80599030D01*
X135247428Y-80590765D01*
X135271227Y-80584804D01*
X135295495Y-80581204D01*
X135319999Y-80580000D01*
X135970001Y-80580000D01*
X135994505Y-80581204D01*
X135994505Y-80581204D01*
G37*
D11*
G04 #@! TD*
G04 #@! TO.P,C2,2*
G04 #@! TO.N,Net-(C2-Pad2)*
X135645000Y-81280000D03*
D12*
G04 #@! TO.P,J1,1*
G04 #@! TO.N,Net-(J1-Pad1)*
X124460000Y-93980000D03*
D13*
G04 #@! TO.P,J1,2*
G04 #@! TO.N,Net-(J1-Pad2)*
X124460000Y-91440000D03*
G04 #@! TO.P,J1,3*
G04 #@! TO.N,Net-(J1-Pad3)*
X124460000Y-88900000D03*
G04 #@! TO.P,J1,4*
G04 #@! TO.N,Net-(J1-Pad4)*
X124460000Y-86360000D03*
G04 #@! TO.P,J1,5*
G04 #@! TO.N,Net-(J1-Pad5)*
X124460000Y-83820000D03*
G04 #@! TO.P,J1,6*
G04 #@! TO.N,Net-(J1-Pad6)*
X124460000Y-81280000D03*
G04 #@! TO.P,J1,7*
G04 #@! TO.N,Net-(J1-Pad7)*
X124460000Y-78740000D03*
G04 #@! TO.P,J1,8*
G04 #@! TO.N,Net-(J1-Pad8)*
X124460000Y-76200000D03*
G04 #@! TD*
G04 #@! TO.P,J2,8*
G04 #@! TO.N,Net-(J2-Pad8)*
X139700000Y-76200000D03*
G04 #@! TO.P,J2,7*
G04 #@! TO.N,Net-(J2-Pad7)*
X139700000Y-78740000D03*
G04 #@! TO.P,J2,6*
G04 #@! TO.N,Net-(J2-Pad6)*
X139700000Y-81280000D03*
G04 #@! TO.P,J2,5*
G04 #@! TO.N,Net-(J2-Pad5)*
X139700000Y-83820000D03*
G04 #@! TO.P,J2,4*
G04 #@! TO.N,Net-(J2-Pad4)*
X139700000Y-86360000D03*
G04 #@! TO.P,J2,3*
G04 #@! TO.N,Net-(J2-Pad3)*
X139700000Y-88900000D03*
G04 #@! TO.P,J2,2*
G04 #@! TO.N,Net-(J2-Pad2)*
X139700000Y-91440000D03*
D12*
G04 #@! TO.P,J2,1*
G04 #@! TO.N,Net-(J2-Pad1)*
X139700000Y-93980000D03*
G04 #@! TD*
G04 #@! TO.P,J3,1*
G04 #@! TO.N,Net-(C1-Pad1)*
X129540000Y-74676000D03*
D13*
G04 #@! TO.P,J3,2*
G04 #@! TO.N,GND*
X132080000Y-74676000D03*
G04 #@! TO.P,J3,3*
G04 #@! TO.N,Net-(J3-Pad3)*
X134620000Y-74676000D03*
G04 #@! TD*
D14*
G04 #@! TO.P,U1,1*
G04 #@! TO.N,GND*
X129130000Y-83689000D03*
G04 #@! TO.P,U1,2*
G04 #@! TO.N,Net-(C1-Pad1)*
X129130000Y-84339000D03*
G04 #@! TO.P,U1,3*
G04 #@! TO.N,Net-(J1-Pad8)*
X129130000Y-84989000D03*
G04 #@! TO.P,U1,4*
G04 #@! TO.N,Net-(J1-Pad7)*
X129130000Y-85639000D03*
G04 #@! TO.P,U1,5*
G04 #@! TO.N,Net-(J1-Pad6)*
X129130000Y-86289000D03*
G04 #@! TO.P,U1,6*
G04 #@! TO.N,Net-(J1-Pad5)*
X129130000Y-86939000D03*
G04 #@! TO.P,U1,7*
G04 #@! TO.N,Net-(J1-Pad4)*
X129130000Y-87589000D03*
G04 #@! TO.P,U1,8*
G04 #@! TO.N,Net-(J1-Pad3)*
X129130000Y-88239000D03*
G04 #@! TO.P,U1,9*
G04 #@! TO.N,Net-(J1-Pad2)*
X129130000Y-88889000D03*
G04 #@! TO.P,U1,10*
G04 #@! TO.N,Net-(J1-Pad1)*
X129130000Y-89539000D03*
G04 #@! TO.P,U1,11*
G04 #@! TO.N,Net-(J2-Pad1)*
X135030000Y-89539000D03*
G04 #@! TO.P,U1,12*
G04 #@! TO.N,Net-(J2-Pad2)*
X135030000Y-88889000D03*
G04 #@! TO.P,U1,13*
G04 #@! TO.N,Net-(J2-Pad3)*
X135030000Y-88239000D03*
G04 #@! TO.P,U1,14*
G04 #@! TO.N,Net-(J2-Pad4)*
X135030000Y-87589000D03*
G04 #@! TO.P,U1,15*
G04 #@! TO.N,Net-(J2-Pad5)*
X135030000Y-86939000D03*
G04 #@! TO.P,U1,16*
G04 #@! TO.N,Net-(J2-Pad6)*
X135030000Y-86289000D03*
G04 #@! TO.P,U1,17*
G04 #@! TO.N,Net-(J2-Pad7)*
X135030000Y-85639000D03*
G04 #@! TO.P,U1,18*
G04 #@! TO.N,Net-(J2-Pad8)*
X135030000Y-84989000D03*
G04 #@! TO.P,U1,19*
G04 #@! TO.N,Net-(C2-Pad2)*
X135030000Y-84339000D03*
G04 #@! TO.P,U1,20*
X135030000Y-83689000D03*
G04 #@! TD*
D10*
G04 #@! TO.N,Net-(C2-Pad2)*
G04 #@! TO.C,R1*
G36*
X135994505Y-77787204D02*
X136018773Y-77790804D01*
X136042572Y-77796765D01*
X136065671Y-77805030D01*
X136087850Y-77815520D01*
X136108893Y-77828132D01*
X136128599Y-77842747D01*
X136146777Y-77859223D01*
X136163253Y-77877401D01*
X136177868Y-77897107D01*
X136190480Y-77918150D01*
X136200970Y-77940329D01*
X136209235Y-77963428D01*
X136215196Y-77987227D01*
X136218796Y-78011495D01*
X136220000Y-78035999D01*
X136220000Y-78936001D01*
X136218796Y-78960505D01*
X136215196Y-78984773D01*
X136209235Y-79008572D01*
X136200970Y-79031671D01*
X136190480Y-79053850D01*
X136177868Y-79074893D01*
X136163253Y-79094599D01*
X136146777Y-79112777D01*
X136128599Y-79129253D01*
X136108893Y-79143868D01*
X136087850Y-79156480D01*
X136065671Y-79166970D01*
X136042572Y-79175235D01*
X136018773Y-79181196D01*
X135994505Y-79184796D01*
X135970001Y-79186000D01*
X135319999Y-79186000D01*
X135295495Y-79184796D01*
X135271227Y-79181196D01*
X135247428Y-79175235D01*
X135224329Y-79166970D01*
X135202150Y-79156480D01*
X135181107Y-79143868D01*
X135161401Y-79129253D01*
X135143223Y-79112777D01*
X135126747Y-79094599D01*
X135112132Y-79074893D01*
X135099520Y-79053850D01*
X135089030Y-79031671D01*
X135080765Y-79008572D01*
X135074804Y-78984773D01*
X135071204Y-78960505D01*
X135070000Y-78936001D01*
X135070000Y-78035999D01*
X135071204Y-78011495D01*
X135074804Y-77987227D01*
X135080765Y-77963428D01*
X135089030Y-77940329D01*
X135099520Y-77918150D01*
X135112132Y-77897107D01*
X135126747Y-77877401D01*
X135143223Y-77859223D01*
X135161401Y-77842747D01*
X135181107Y-77828132D01*
X135202150Y-77815520D01*
X135224329Y-77805030D01*
X135247428Y-77796765D01*
X135271227Y-77790804D01*
X135295495Y-77787204D01*
X135319999Y-77786000D01*
X135970001Y-77786000D01*
X135994505Y-77787204D01*
X135994505Y-77787204D01*
G37*
D11*
G04 #@! TD*
G04 #@! TO.P,R1,1*
G04 #@! TO.N,Net-(C2-Pad2)*
X135645000Y-78486000D03*
D10*
G04 #@! TO.N,Net-(J3-Pad3)*
G04 #@! TO.C,R1*
G36*
X133944505Y-77787204D02*
X133968773Y-77790804D01*
X133992572Y-77796765D01*
X134015671Y-77805030D01*
X134037850Y-77815520D01*
X134058893Y-77828132D01*
X134078599Y-77842747D01*
X134096777Y-77859223D01*
X134113253Y-77877401D01*
X134127868Y-77897107D01*
X134140480Y-77918150D01*
X134150970Y-77940329D01*
X134159235Y-77963428D01*
X134165196Y-77987227D01*
X134168796Y-78011495D01*
X134170000Y-78035999D01*
X134170000Y-78936001D01*
X134168796Y-78960505D01*
X134165196Y-78984773D01*
X134159235Y-79008572D01*
X134150970Y-79031671D01*
X134140480Y-79053850D01*
X134127868Y-79074893D01*
X134113253Y-79094599D01*
X134096777Y-79112777D01*
X134078599Y-79129253D01*
X134058893Y-79143868D01*
X134037850Y-79156480D01*
X134015671Y-79166970D01*
X133992572Y-79175235D01*
X133968773Y-79181196D01*
X133944505Y-79184796D01*
X133920001Y-79186000D01*
X133269999Y-79186000D01*
X133245495Y-79184796D01*
X133221227Y-79181196D01*
X133197428Y-79175235D01*
X133174329Y-79166970D01*
X133152150Y-79156480D01*
X133131107Y-79143868D01*
X133111401Y-79129253D01*
X133093223Y-79112777D01*
X133076747Y-79094599D01*
X133062132Y-79074893D01*
X133049520Y-79053850D01*
X133039030Y-79031671D01*
X133030765Y-79008572D01*
X133024804Y-78984773D01*
X133021204Y-78960505D01*
X133020000Y-78936001D01*
X133020000Y-78035999D01*
X133021204Y-78011495D01*
X133024804Y-77987227D01*
X133030765Y-77963428D01*
X133039030Y-77940329D01*
X133049520Y-77918150D01*
X133062132Y-77897107D01*
X133076747Y-77877401D01*
X133093223Y-77859223D01*
X133111401Y-77842747D01*
X133131107Y-77828132D01*
X133152150Y-77815520D01*
X133174329Y-77805030D01*
X133197428Y-77796765D01*
X133221227Y-77790804D01*
X133245495Y-77787204D01*
X133269999Y-77786000D01*
X133920001Y-77786000D01*
X133944505Y-77787204D01*
X133944505Y-77787204D01*
G37*
D11*
G04 #@! TD*
G04 #@! TO.P,R1,2*
G04 #@! TO.N,Net-(J3-Pad3)*
X133595000Y-78486000D03*
D15*
G04 #@! TO.N,GND*
X122174000Y-94488000D03*
X122174000Y-90678000D03*
X122174000Y-86868000D03*
X122174000Y-83058000D03*
X122174000Y-79502000D03*
X122174000Y-75946000D03*
X141986000Y-75692000D03*
X141986000Y-79248000D03*
X141986000Y-82804000D03*
X141986000Y-86360000D03*
X141986000Y-90170000D03*
X141986000Y-94234000D03*
X132080000Y-78041500D03*
X132080000Y-79311500D03*
X130746500Y-80264000D03*
X132080000Y-80708500D03*
X132080000Y-82105500D03*
X129159000Y-82359500D03*
X131318000Y-83883500D03*
G04 #@! TD*
D16*
G04 #@! TO.N,Net-(C1-Pad1)*
X128515000Y-75701000D02*
X129540000Y-74676000D01*
X128515000Y-78486000D02*
X128515000Y-75701000D01*
D17*
X130255000Y-84339000D02*
X129130000Y-84339000D01*
X130255031Y-81026032D02*
X130255000Y-84339000D01*
X128515000Y-79286000D02*
X130255031Y-81026032D01*
X128515000Y-78486000D02*
X128515000Y-79286000D01*
D16*
G04 #@! TO.N,Net-(C2-Pad2)*
X135645000Y-78486000D02*
X135645000Y-81280000D01*
D17*
X133905000Y-83689000D02*
X133858000Y-83736000D01*
X135030000Y-83689000D02*
X133905000Y-83689000D01*
X133905000Y-84339000D02*
X135030000Y-84339000D01*
X133858000Y-84292000D02*
X133905000Y-84339000D01*
X133858000Y-83736000D02*
X133858000Y-84292000D01*
X133858000Y-83067000D02*
X135645000Y-81280000D01*
X133858000Y-83736000D02*
X133858000Y-83067000D01*
G04 #@! TO.N,Net-(J1-Pad1)*
X124460000Y-93709000D02*
X124460000Y-93980000D01*
X128630000Y-89539000D02*
X124460000Y-93709000D01*
X129130000Y-89539000D02*
X128630000Y-89539000D01*
G04 #@! TO.N,Net-(J1-Pad2)*
X127011000Y-88889000D02*
X129130000Y-88889000D01*
X124460000Y-91440000D02*
X127011000Y-88889000D01*
G04 #@! TO.N,Net-(J1-Pad3)*
X128005000Y-88239000D02*
X129130000Y-88239000D01*
X126323081Y-88239000D02*
X128005000Y-88239000D01*
X125662081Y-88900000D02*
X126323081Y-88239000D01*
X124460000Y-88900000D02*
X125662081Y-88900000D01*
G04 #@! TO.N,Net-(J1-Pad4)*
X128005000Y-87589000D02*
X129130000Y-87589000D01*
X127210832Y-87589000D02*
X128005000Y-87589000D01*
X126831831Y-87209999D02*
X127210832Y-87589000D01*
X125309999Y-87209999D02*
X126831831Y-87209999D01*
X124460000Y-86360000D02*
X125309999Y-87209999D01*
G04 #@! TO.N,Net-(J1-Pad5)*
X128005000Y-86939000D02*
X129130000Y-86939000D01*
X127409374Y-86939000D02*
X128005000Y-86939000D01*
X124460000Y-83989626D02*
X127409374Y-86939000D01*
X124460000Y-83820000D02*
X124460000Y-83989626D01*
G04 #@! TO.N,Net-(J1-Pad6)*
X128005000Y-86289000D02*
X129130000Y-86289000D01*
X127607916Y-86289000D02*
X128005000Y-86289000D01*
X125710001Y-84391085D02*
X127607916Y-86289000D01*
X125710001Y-82530001D02*
X125710001Y-84391085D01*
X124460000Y-81280000D02*
X125710001Y-82530001D01*
G04 #@! TO.N,Net-(J1-Pad7)*
X127806458Y-85639000D02*
X126873000Y-84705542D01*
X129130000Y-85639000D02*
X127806458Y-85639000D01*
X126873000Y-81153000D02*
X124460000Y-78740000D01*
X126873000Y-84705542D02*
X126873000Y-81153000D01*
G04 #@! TO.N,Net-(J1-Pad8)*
X128005000Y-84989000D02*
X129130000Y-84989000D01*
X127698500Y-84682500D02*
X128005000Y-84989000D01*
X127698500Y-79438500D02*
X127698500Y-84682500D01*
X124460000Y-76200000D02*
X127698500Y-79438500D01*
G04 #@! TO.N,Net-(J2-Pad8)*
X135054999Y-84964001D02*
X135030000Y-84989000D01*
X136075001Y-84964001D02*
X135054999Y-84964001D01*
X136620010Y-84418992D02*
X136075001Y-84964001D01*
X136620010Y-79279990D02*
X136620010Y-84418992D01*
X139700000Y-76200000D02*
X136620010Y-79279990D01*
G04 #@! TO.N,Net-(J2-Pad7)*
X136155000Y-85639000D02*
X135030000Y-85639000D01*
X136865000Y-85639000D02*
X136155000Y-85639000D01*
X137220020Y-85283980D02*
X136865000Y-85639000D01*
X137220020Y-81219980D02*
X137220020Y-85283980D01*
X139700000Y-78740000D02*
X137220020Y-81219980D01*
G04 #@! TO.N,Net-(J2-Pad6)*
X136155000Y-86289000D02*
X135030000Y-86289000D01*
X137063542Y-86289000D02*
X136155000Y-86289000D01*
X137820029Y-85532513D02*
X137063542Y-86289000D01*
X137820030Y-81957889D02*
X137820029Y-85532513D01*
X138497919Y-81280000D02*
X137820030Y-81957889D01*
X139700000Y-81280000D02*
X138497919Y-81280000D01*
G04 #@! TO.N,Net-(J2-Pad5)*
X136155000Y-86939000D02*
X135030000Y-86939000D01*
X137262084Y-86939000D02*
X136155000Y-86939000D01*
X138420037Y-85781047D02*
X137262084Y-86939000D01*
X138420040Y-85099960D02*
X138420037Y-85781047D01*
X139700000Y-83820000D02*
X138420040Y-85099960D01*
G04 #@! TO.N,Net-(J2-Pad4)*
X138850001Y-87209999D02*
X139700000Y-86360000D01*
X138520990Y-87539010D02*
X138850001Y-87209999D01*
X135980990Y-87539010D02*
X138520990Y-87539010D01*
X135931000Y-87589000D02*
X135980990Y-87539010D01*
X135030000Y-87589000D02*
X135931000Y-87589000D01*
G04 #@! TO.N,Net-(J2-Pad3)*
X139039000Y-88239000D02*
X139700000Y-88900000D01*
X135030000Y-88239000D02*
X139039000Y-88239000D01*
G04 #@! TO.N,Net-(J2-Pad2)*
X138850001Y-90590001D02*
X139700000Y-91440000D01*
X137173999Y-88913999D02*
X138850001Y-90590001D01*
X135798999Y-88913999D02*
X137173999Y-88913999D01*
X135774000Y-88889000D02*
X135798999Y-88913999D01*
X135030000Y-88889000D02*
X135774000Y-88889000D01*
G04 #@! TO.N,Net-(J2-Pad1)*
X139700000Y-93709000D02*
X139700000Y-93980000D01*
X135530000Y-89539000D02*
X139700000Y-93709000D01*
X135030000Y-89539000D02*
X135530000Y-89539000D01*
D16*
G04 #@! TO.N,Net-(J3-Pad3)*
X133595000Y-75701000D02*
X134620000Y-74676000D01*
X133595000Y-78486000D02*
X133595000Y-75701000D01*
G04 #@! TD*
D18*
G04 #@! TO.N,GND*
G36*
X141934482Y-72119755D02*
X142224224Y-72287038D01*
X142439278Y-72543329D01*
X142558320Y-72870396D01*
X142573000Y-73038187D01*
X142573001Y-95858572D01*
X142510245Y-96214484D01*
X142342962Y-96504224D01*
X142086671Y-96719278D01*
X141759606Y-96838320D01*
X141591812Y-96853000D01*
X122581422Y-96853000D01*
X122225516Y-96790245D01*
X121935776Y-96622962D01*
X121720722Y-96366671D01*
X121601680Y-96039606D01*
X121587000Y-95871812D01*
X121587000Y-76200000D01*
X123259942Y-76200000D01*
X123351291Y-76659242D01*
X123611431Y-77048569D01*
X124000758Y-77308709D01*
X124344080Y-77377000D01*
X124575920Y-77377000D01*
X124839317Y-77324607D01*
X127171500Y-79656791D01*
X127171500Y-80706209D01*
X125584607Y-79119317D01*
X125660058Y-78740000D01*
X125568709Y-78280758D01*
X125308569Y-77891431D01*
X124919242Y-77631291D01*
X124575920Y-77563000D01*
X124344080Y-77563000D01*
X124000758Y-77631291D01*
X123611431Y-77891431D01*
X123351291Y-78280758D01*
X123259942Y-78740000D01*
X123351291Y-79199242D01*
X123611431Y-79588569D01*
X124000758Y-79848709D01*
X124344080Y-79917000D01*
X124575920Y-79917000D01*
X124839317Y-79864607D01*
X126346001Y-81371292D01*
X126346000Y-84281794D01*
X126237001Y-84172795D01*
X126237001Y-82581898D01*
X126247324Y-82530000D01*
X126237001Y-82478102D01*
X126237001Y-82478098D01*
X126206424Y-82324376D01*
X126089946Y-82150056D01*
X126045946Y-82120656D01*
X125584607Y-81659317D01*
X125660058Y-81280000D01*
X125568709Y-80820758D01*
X125308569Y-80431431D01*
X124919242Y-80171291D01*
X124575920Y-80103000D01*
X124344080Y-80103000D01*
X124000758Y-80171291D01*
X123611431Y-80431431D01*
X123351291Y-80820758D01*
X123259942Y-81280000D01*
X123351291Y-81739242D01*
X123611431Y-82128569D01*
X124000758Y-82388709D01*
X124344080Y-82457000D01*
X124575920Y-82457000D01*
X124839317Y-82404607D01*
X125183001Y-82748291D01*
X125183001Y-82887529D01*
X124919242Y-82711291D01*
X124575920Y-82643000D01*
X124344080Y-82643000D01*
X124000758Y-82711291D01*
X123611431Y-82971431D01*
X123351291Y-83360758D01*
X123259942Y-83820000D01*
X123351291Y-84279242D01*
X123611431Y-84668569D01*
X124000758Y-84928709D01*
X124344080Y-84997000D01*
X124575920Y-84997000D01*
X124697834Y-84972750D01*
X125091421Y-85366337D01*
X124919242Y-85251291D01*
X124575920Y-85183000D01*
X124344080Y-85183000D01*
X124000758Y-85251291D01*
X123611431Y-85511431D01*
X123351291Y-85900758D01*
X123259942Y-86360000D01*
X123351291Y-86819242D01*
X123611431Y-87208569D01*
X124000758Y-87468709D01*
X124344080Y-87537000D01*
X124575920Y-87537000D01*
X124839316Y-87484607D01*
X124900655Y-87545946D01*
X124930054Y-87589944D01*
X124974051Y-87619342D01*
X124974054Y-87619345D01*
X125065720Y-87680594D01*
X125104374Y-87706422D01*
X125258096Y-87736999D01*
X125258100Y-87736999D01*
X125309998Y-87747322D01*
X125361896Y-87736999D01*
X126145499Y-87736999D01*
X126117456Y-87742577D01*
X126117454Y-87742578D01*
X126117455Y-87742578D01*
X125987136Y-87829654D01*
X125987133Y-87829657D01*
X125943136Y-87859055D01*
X125913737Y-87903053D01*
X125491534Y-88325257D01*
X125308569Y-88051431D01*
X124919242Y-87791291D01*
X124575920Y-87723000D01*
X124344080Y-87723000D01*
X124000758Y-87791291D01*
X123611431Y-88051431D01*
X123351291Y-88440758D01*
X123259942Y-88900000D01*
X123351291Y-89359242D01*
X123611431Y-89748569D01*
X124000758Y-90008709D01*
X124344080Y-90077000D01*
X124575920Y-90077000D01*
X124919242Y-90008709D01*
X125308569Y-89748569D01*
X125523435Y-89427000D01*
X125610183Y-89427000D01*
X125662081Y-89437323D01*
X125713979Y-89427000D01*
X125713984Y-89427000D01*
X125731117Y-89423592D01*
X124839317Y-90315393D01*
X124575920Y-90263000D01*
X124344080Y-90263000D01*
X124000758Y-90331291D01*
X123611431Y-90591431D01*
X123351291Y-90980758D01*
X123259942Y-91440000D01*
X123351291Y-91899242D01*
X123611431Y-92288569D01*
X124000758Y-92548709D01*
X124344080Y-92617000D01*
X124575920Y-92617000D01*
X124864016Y-92559694D01*
X124627116Y-92796594D01*
X123610000Y-92796594D01*
X123482411Y-92821973D01*
X123374246Y-92894246D01*
X123301973Y-93002411D01*
X123276594Y-93130000D01*
X123276594Y-94830000D01*
X123301973Y-94957589D01*
X123374246Y-95065754D01*
X123482411Y-95138027D01*
X123610000Y-95163406D01*
X125310000Y-95163406D01*
X125437589Y-95138027D01*
X125545754Y-95065754D01*
X125618027Y-94957589D01*
X125643406Y-94830000D01*
X125643406Y-93270884D01*
X128816884Y-90097406D01*
X129855000Y-90097406D01*
X129982589Y-90072027D01*
X130090754Y-89999754D01*
X130163027Y-89891589D01*
X130188406Y-89764000D01*
X130188406Y-89314000D01*
X130168515Y-89214000D01*
X130188406Y-89114000D01*
X130188406Y-88664000D01*
X130168515Y-88564000D01*
X130188406Y-88464000D01*
X130188406Y-88014000D01*
X130168515Y-87914000D01*
X130188406Y-87814000D01*
X130188406Y-87364000D01*
X130168515Y-87264000D01*
X130188406Y-87164000D01*
X130188406Y-86714000D01*
X130168515Y-86614000D01*
X130188406Y-86514000D01*
X130188406Y-86064000D01*
X130168515Y-85964000D01*
X130188406Y-85864000D01*
X130188406Y-85414000D01*
X130168515Y-85314000D01*
X130188406Y-85214000D01*
X130188406Y-84866000D01*
X130203099Y-84866000D01*
X130254995Y-84876323D01*
X130306895Y-84866000D01*
X130306903Y-84866000D01*
X130460625Y-84835423D01*
X130633341Y-84720017D01*
X130634941Y-84718948D01*
X130634941Y-84718947D01*
X130634945Y-84718945D01*
X130739388Y-84562637D01*
X130751421Y-84544629D01*
X130751421Y-84544628D01*
X130751423Y-84544625D01*
X130792324Y-84339000D01*
X130782000Y-84287097D01*
X130782011Y-83067000D01*
X133320677Y-83067000D01*
X133331000Y-83118898D01*
X133331000Y-83684102D01*
X133320677Y-83736000D01*
X133331000Y-83787898D01*
X133331000Y-84240102D01*
X133320677Y-84292000D01*
X133331000Y-84343898D01*
X133331000Y-84343903D01*
X133359275Y-84486049D01*
X133361578Y-84497625D01*
X133448654Y-84627944D01*
X133448658Y-84627948D01*
X133478056Y-84671945D01*
X133506229Y-84690769D01*
X133525055Y-84718945D01*
X133699375Y-84835423D01*
X133853097Y-84866000D01*
X133853102Y-84866000D01*
X133904999Y-84876323D01*
X133956897Y-84866000D01*
X133971594Y-84866000D01*
X133971594Y-85214000D01*
X133991485Y-85314000D01*
X133971594Y-85414000D01*
X133971594Y-85864000D01*
X133991485Y-85964000D01*
X133971594Y-86064000D01*
X133971594Y-86514000D01*
X133991485Y-86614000D01*
X133971594Y-86714000D01*
X133971594Y-87164000D01*
X133991485Y-87264000D01*
X133971594Y-87364000D01*
X133971594Y-87814000D01*
X133991485Y-87914000D01*
X133971594Y-88014000D01*
X133971594Y-88464000D01*
X133991485Y-88564000D01*
X133971594Y-88664000D01*
X133971594Y-89114000D01*
X133991485Y-89214000D01*
X133971594Y-89314000D01*
X133971594Y-89764000D01*
X133996973Y-89891589D01*
X134069246Y-89999754D01*
X134177411Y-90072027D01*
X134305000Y-90097406D01*
X135343116Y-90097406D01*
X138516594Y-93270884D01*
X138516594Y-94830000D01*
X138541973Y-94957589D01*
X138614246Y-95065754D01*
X138722411Y-95138027D01*
X138850000Y-95163406D01*
X140550000Y-95163406D01*
X140677589Y-95138027D01*
X140785754Y-95065754D01*
X140858027Y-94957589D01*
X140883406Y-94830000D01*
X140883406Y-93130000D01*
X140858027Y-93002411D01*
X140785754Y-92894246D01*
X140677589Y-92821973D01*
X140550000Y-92796594D01*
X139532884Y-92796594D01*
X139295984Y-92559694D01*
X139584080Y-92617000D01*
X139815920Y-92617000D01*
X140159242Y-92548709D01*
X140548569Y-92288569D01*
X140808709Y-91899242D01*
X140900058Y-91440000D01*
X140808709Y-90980758D01*
X140548569Y-90591431D01*
X140159242Y-90331291D01*
X139815920Y-90263000D01*
X139584080Y-90263000D01*
X139320683Y-90315393D01*
X139259349Y-90254059D01*
X139259347Y-90254056D01*
X137771290Y-88766000D01*
X138526596Y-88766000D01*
X138499942Y-88900000D01*
X138591291Y-89359242D01*
X138851431Y-89748569D01*
X139240758Y-90008709D01*
X139584080Y-90077000D01*
X139815920Y-90077000D01*
X140159242Y-90008709D01*
X140548569Y-89748569D01*
X140808709Y-89359242D01*
X140900058Y-88900000D01*
X140808709Y-88440758D01*
X140548569Y-88051431D01*
X140159242Y-87791291D01*
X139815920Y-87723000D01*
X139584080Y-87723000D01*
X139299918Y-87779523D01*
X139244625Y-87742577D01*
X139092894Y-87712396D01*
X139320683Y-87484607D01*
X139584080Y-87537000D01*
X139815920Y-87537000D01*
X140159242Y-87468709D01*
X140548569Y-87208569D01*
X140808709Y-86819242D01*
X140900058Y-86360000D01*
X140808709Y-85900758D01*
X140548569Y-85511431D01*
X140159242Y-85251291D01*
X139815920Y-85183000D01*
X139584080Y-85183000D01*
X139240758Y-85251291D01*
X138947038Y-85447548D01*
X138947039Y-85318252D01*
X139320683Y-84944607D01*
X139584080Y-84997000D01*
X139815920Y-84997000D01*
X140159242Y-84928709D01*
X140548569Y-84668569D01*
X140808709Y-84279242D01*
X140900058Y-83820000D01*
X140808709Y-83360758D01*
X140548569Y-82971431D01*
X140159242Y-82711291D01*
X139815920Y-82643000D01*
X139584080Y-82643000D01*
X139240758Y-82711291D01*
X138851431Y-82971431D01*
X138591291Y-83360758D01*
X138499942Y-83820000D01*
X138575393Y-84199317D01*
X138347029Y-84427681D01*
X138347030Y-82176179D01*
X138668466Y-81854743D01*
X138851431Y-82128569D01*
X139240758Y-82388709D01*
X139584080Y-82457000D01*
X139815920Y-82457000D01*
X140159242Y-82388709D01*
X140548569Y-82128569D01*
X140808709Y-81739242D01*
X140900058Y-81280000D01*
X140808709Y-80820758D01*
X140548569Y-80431431D01*
X140159242Y-80171291D01*
X139815920Y-80103000D01*
X139584080Y-80103000D01*
X139240758Y-80171291D01*
X138851431Y-80431431D01*
X138636565Y-80753000D01*
X138549818Y-80753000D01*
X138497919Y-80742677D01*
X138446020Y-80753000D01*
X138446016Y-80753000D01*
X138428882Y-80756408D01*
X139320683Y-79864607D01*
X139584080Y-79917000D01*
X139815920Y-79917000D01*
X140159242Y-79848709D01*
X140548569Y-79588569D01*
X140808709Y-79199242D01*
X140900058Y-78740000D01*
X140808709Y-78280758D01*
X140548569Y-77891431D01*
X140159242Y-77631291D01*
X139815920Y-77563000D01*
X139584080Y-77563000D01*
X139240758Y-77631291D01*
X138851431Y-77891431D01*
X138591291Y-78280758D01*
X138499942Y-78740000D01*
X138575393Y-79119317D01*
X137147010Y-80547700D01*
X137147010Y-79498280D01*
X139320684Y-77324607D01*
X139584080Y-77377000D01*
X139815920Y-77377000D01*
X140159242Y-77308709D01*
X140548569Y-77048569D01*
X140808709Y-76659242D01*
X140900058Y-76200000D01*
X140808709Y-75740758D01*
X140548569Y-75351431D01*
X140159242Y-75091291D01*
X139815920Y-75023000D01*
X139584080Y-75023000D01*
X139240758Y-75091291D01*
X138851431Y-75351431D01*
X138591291Y-75740758D01*
X138499942Y-76200000D01*
X138575393Y-76579316D01*
X136553406Y-78601304D01*
X136553406Y-78035999D01*
X136508997Y-77812740D01*
X136382531Y-77623469D01*
X136193260Y-77497003D01*
X135970001Y-77452594D01*
X135319999Y-77452594D01*
X135096740Y-77497003D01*
X134907469Y-77623469D01*
X134781003Y-77812740D01*
X134736594Y-78035999D01*
X134736594Y-78936001D01*
X134781003Y-79159260D01*
X134907469Y-79348531D01*
X135018000Y-79422385D01*
X135018001Y-80343615D01*
X134907469Y-80417469D01*
X134781003Y-80606740D01*
X134736594Y-80829999D01*
X134736594Y-81443115D01*
X134497000Y-81682709D01*
X134497000Y-81488750D01*
X134415250Y-81407000D01*
X133722000Y-81407000D01*
X133722000Y-82225250D01*
X133803750Y-82307000D01*
X133872710Y-82307000D01*
X133522053Y-82657657D01*
X133478056Y-82687055D01*
X133448658Y-82731052D01*
X133448654Y-82731056D01*
X133361578Y-82861375D01*
X133331000Y-83015097D01*
X133331000Y-83015102D01*
X133320677Y-83067000D01*
X130782011Y-83067000D01*
X130782026Y-81488750D01*
X132693000Y-81488750D01*
X132693000Y-82045045D01*
X132742783Y-82165231D01*
X132834770Y-82257217D01*
X132954956Y-82307000D01*
X133386250Y-82307000D01*
X133468000Y-82225250D01*
X133468000Y-81407000D01*
X132774750Y-81407000D01*
X132693000Y-81488750D01*
X130782026Y-81488750D01*
X130782030Y-81077935D01*
X130792354Y-81026032D01*
X130782029Y-80974125D01*
X130751455Y-80820412D01*
X130751454Y-80820410D01*
X130751453Y-80820406D01*
X130664377Y-80690087D01*
X130664373Y-80690083D01*
X130634979Y-80646091D01*
X130590983Y-80616693D01*
X130489245Y-80514955D01*
X132693000Y-80514955D01*
X132693000Y-81071250D01*
X132774750Y-81153000D01*
X133468000Y-81153000D01*
X133468000Y-80334750D01*
X133722000Y-80334750D01*
X133722000Y-81153000D01*
X134415250Y-81153000D01*
X134497000Y-81071250D01*
X134497000Y-80514955D01*
X134447217Y-80394769D01*
X134355230Y-80302783D01*
X134235044Y-80253000D01*
X133803750Y-80253000D01*
X133722000Y-80334750D01*
X133468000Y-80334750D01*
X133386250Y-80253000D01*
X132954956Y-80253000D01*
X132834770Y-80302783D01*
X132742783Y-80394769D01*
X132693000Y-80514955D01*
X130489245Y-80514955D01*
X129280685Y-79306395D01*
X129378997Y-79159260D01*
X129423406Y-78936001D01*
X129423406Y-78694750D01*
X129663000Y-78694750D01*
X129663000Y-79251045D01*
X129712783Y-79371231D01*
X129804770Y-79463217D01*
X129924956Y-79513000D01*
X130356250Y-79513000D01*
X130438000Y-79431250D01*
X130438000Y-78613000D01*
X130692000Y-78613000D01*
X130692000Y-79431250D01*
X130773750Y-79513000D01*
X131205044Y-79513000D01*
X131325230Y-79463217D01*
X131417217Y-79371231D01*
X131467000Y-79251045D01*
X131467000Y-78694750D01*
X131385250Y-78613000D01*
X130692000Y-78613000D01*
X130438000Y-78613000D01*
X129744750Y-78613000D01*
X129663000Y-78694750D01*
X129423406Y-78694750D01*
X129423406Y-78035999D01*
X129378997Y-77812740D01*
X129317669Y-77720955D01*
X129663000Y-77720955D01*
X129663000Y-78277250D01*
X129744750Y-78359000D01*
X130438000Y-78359000D01*
X130438000Y-77540750D01*
X130692000Y-77540750D01*
X130692000Y-78359000D01*
X131385250Y-78359000D01*
X131467000Y-78277250D01*
X131467000Y-78035999D01*
X132686594Y-78035999D01*
X132686594Y-78936001D01*
X132731003Y-79159260D01*
X132857469Y-79348531D01*
X133046740Y-79474997D01*
X133269999Y-79519406D01*
X133920001Y-79519406D01*
X134143260Y-79474997D01*
X134332531Y-79348531D01*
X134458997Y-79159260D01*
X134503406Y-78936001D01*
X134503406Y-78035999D01*
X134458997Y-77812740D01*
X134332531Y-77623469D01*
X134222000Y-77549615D01*
X134222000Y-75960711D01*
X134358641Y-75824070D01*
X134504080Y-75853000D01*
X134735920Y-75853000D01*
X135079242Y-75784709D01*
X135468569Y-75524569D01*
X135728709Y-75135242D01*
X135820058Y-74676000D01*
X135728709Y-74216758D01*
X135468569Y-73827431D01*
X135079242Y-73567291D01*
X134735920Y-73499000D01*
X134504080Y-73499000D01*
X134160758Y-73567291D01*
X133771431Y-73827431D01*
X133511291Y-74216758D01*
X133419942Y-74676000D01*
X133471930Y-74937359D01*
X133195307Y-75213982D01*
X133142960Y-75248959D01*
X133107982Y-75301307D01*
X133107981Y-75301308D01*
X133004380Y-75456358D01*
X132955718Y-75701000D01*
X132968001Y-75762751D01*
X132968000Y-77549615D01*
X132857469Y-77623469D01*
X132731003Y-77812740D01*
X132686594Y-78035999D01*
X131467000Y-78035999D01*
X131467000Y-77720955D01*
X131417217Y-77600769D01*
X131325230Y-77508783D01*
X131205044Y-77459000D01*
X130773750Y-77459000D01*
X130692000Y-77540750D01*
X130438000Y-77540750D01*
X130356250Y-77459000D01*
X129924956Y-77459000D01*
X129804770Y-77508783D01*
X129712783Y-77600769D01*
X129663000Y-77720955D01*
X129317669Y-77720955D01*
X129252531Y-77623469D01*
X129142000Y-77549615D01*
X129142000Y-75960711D01*
X129243305Y-75859406D01*
X130390000Y-75859406D01*
X130517589Y-75834027D01*
X130625754Y-75761754D01*
X130698027Y-75653589D01*
X130723406Y-75526000D01*
X130723406Y-74984487D01*
X130944134Y-74984487D01*
X131148650Y-75395682D01*
X131494955Y-75697312D01*
X131771515Y-75811855D01*
X131953000Y-75763862D01*
X131953000Y-74803000D01*
X132207000Y-74803000D01*
X132207000Y-75763862D01*
X132388485Y-75811855D01*
X132665045Y-75697312D01*
X133011350Y-75395682D01*
X133215866Y-74984487D01*
X133168390Y-74803000D01*
X132207000Y-74803000D01*
X131953000Y-74803000D01*
X130991610Y-74803000D01*
X130944134Y-74984487D01*
X130723406Y-74984487D01*
X130723406Y-74367513D01*
X130944134Y-74367513D01*
X130991610Y-74549000D01*
X131953000Y-74549000D01*
X131953000Y-73588138D01*
X132207000Y-73588138D01*
X132207000Y-74549000D01*
X133168390Y-74549000D01*
X133215866Y-74367513D01*
X133011350Y-73956318D01*
X132665045Y-73654688D01*
X132388485Y-73540145D01*
X132207000Y-73588138D01*
X131953000Y-73588138D01*
X131771515Y-73540145D01*
X131494955Y-73654688D01*
X131148650Y-73956318D01*
X130944134Y-74367513D01*
X130723406Y-74367513D01*
X130723406Y-73826000D01*
X130698027Y-73698411D01*
X130625754Y-73590246D01*
X130517589Y-73517973D01*
X130390000Y-73492594D01*
X128690000Y-73492594D01*
X128562411Y-73517973D01*
X128454246Y-73590246D01*
X128381973Y-73698411D01*
X128356594Y-73826000D01*
X128356594Y-74972695D01*
X128115307Y-75213982D01*
X128062960Y-75248959D01*
X128027982Y-75301307D01*
X128027981Y-75301308D01*
X127924380Y-75456358D01*
X127875718Y-75701000D01*
X127888001Y-75762751D01*
X127888000Y-77549615D01*
X127777469Y-77623469D01*
X127651003Y-77812740D01*
X127606594Y-78035999D01*
X127606594Y-78601303D01*
X125584607Y-76579317D01*
X125660058Y-76200000D01*
X125568709Y-75740758D01*
X125308569Y-75351431D01*
X124919242Y-75091291D01*
X124575920Y-75023000D01*
X124344080Y-75023000D01*
X124000758Y-75091291D01*
X123611431Y-75351431D01*
X123351291Y-75740758D01*
X123259942Y-76200000D01*
X121587000Y-76200000D01*
X121587000Y-73051421D01*
X121649755Y-72695518D01*
X121817038Y-72405776D01*
X122073329Y-72190722D01*
X122400396Y-72071680D01*
X122568187Y-72057000D01*
X141578579Y-72057000D01*
X141934482Y-72119755D01*
X141934482Y-72119755D01*
G37*
X141934482Y-72119755D02*
X142224224Y-72287038D01*
X142439278Y-72543329D01*
X142558320Y-72870396D01*
X142573000Y-73038187D01*
X142573001Y-95858572D01*
X142510245Y-96214484D01*
X142342962Y-96504224D01*
X142086671Y-96719278D01*
X141759606Y-96838320D01*
X141591812Y-96853000D01*
X122581422Y-96853000D01*
X122225516Y-96790245D01*
X121935776Y-96622962D01*
X121720722Y-96366671D01*
X121601680Y-96039606D01*
X121587000Y-95871812D01*
X121587000Y-76200000D01*
X123259942Y-76200000D01*
X123351291Y-76659242D01*
X123611431Y-77048569D01*
X124000758Y-77308709D01*
X124344080Y-77377000D01*
X124575920Y-77377000D01*
X124839317Y-77324607D01*
X127171500Y-79656791D01*
X127171500Y-80706209D01*
X125584607Y-79119317D01*
X125660058Y-78740000D01*
X125568709Y-78280758D01*
X125308569Y-77891431D01*
X124919242Y-77631291D01*
X124575920Y-77563000D01*
X124344080Y-77563000D01*
X124000758Y-77631291D01*
X123611431Y-77891431D01*
X123351291Y-78280758D01*
X123259942Y-78740000D01*
X123351291Y-79199242D01*
X123611431Y-79588569D01*
X124000758Y-79848709D01*
X124344080Y-79917000D01*
X124575920Y-79917000D01*
X124839317Y-79864607D01*
X126346001Y-81371292D01*
X126346000Y-84281794D01*
X126237001Y-84172795D01*
X126237001Y-82581898D01*
X126247324Y-82530000D01*
X126237001Y-82478102D01*
X126237001Y-82478098D01*
X126206424Y-82324376D01*
X126089946Y-82150056D01*
X126045946Y-82120656D01*
X125584607Y-81659317D01*
X125660058Y-81280000D01*
X125568709Y-80820758D01*
X125308569Y-80431431D01*
X124919242Y-80171291D01*
X124575920Y-80103000D01*
X124344080Y-80103000D01*
X124000758Y-80171291D01*
X123611431Y-80431431D01*
X123351291Y-80820758D01*
X123259942Y-81280000D01*
X123351291Y-81739242D01*
X123611431Y-82128569D01*
X124000758Y-82388709D01*
X124344080Y-82457000D01*
X124575920Y-82457000D01*
X124839317Y-82404607D01*
X125183001Y-82748291D01*
X125183001Y-82887529D01*
X124919242Y-82711291D01*
X124575920Y-82643000D01*
X124344080Y-82643000D01*
X124000758Y-82711291D01*
X123611431Y-82971431D01*
X123351291Y-83360758D01*
X123259942Y-83820000D01*
X123351291Y-84279242D01*
X123611431Y-84668569D01*
X124000758Y-84928709D01*
X124344080Y-84997000D01*
X124575920Y-84997000D01*
X124697834Y-84972750D01*
X125091421Y-85366337D01*
X124919242Y-85251291D01*
X124575920Y-85183000D01*
X124344080Y-85183000D01*
X124000758Y-85251291D01*
X123611431Y-85511431D01*
X123351291Y-85900758D01*
X123259942Y-86360000D01*
X123351291Y-86819242D01*
X123611431Y-87208569D01*
X124000758Y-87468709D01*
X124344080Y-87537000D01*
X124575920Y-87537000D01*
X124839316Y-87484607D01*
X124900655Y-87545946D01*
X124930054Y-87589944D01*
X124974051Y-87619342D01*
X124974054Y-87619345D01*
X125065720Y-87680594D01*
X125104374Y-87706422D01*
X125258096Y-87736999D01*
X125258100Y-87736999D01*
X125309998Y-87747322D01*
X125361896Y-87736999D01*
X126145499Y-87736999D01*
X126117456Y-87742577D01*
X126117454Y-87742578D01*
X126117455Y-87742578D01*
X125987136Y-87829654D01*
X125987133Y-87829657D01*
X125943136Y-87859055D01*
X125913737Y-87903053D01*
X125491534Y-88325257D01*
X125308569Y-88051431D01*
X124919242Y-87791291D01*
X124575920Y-87723000D01*
X124344080Y-87723000D01*
X124000758Y-87791291D01*
X123611431Y-88051431D01*
X123351291Y-88440758D01*
X123259942Y-88900000D01*
X123351291Y-89359242D01*
X123611431Y-89748569D01*
X124000758Y-90008709D01*
X124344080Y-90077000D01*
X124575920Y-90077000D01*
X124919242Y-90008709D01*
X125308569Y-89748569D01*
X125523435Y-89427000D01*
X125610183Y-89427000D01*
X125662081Y-89437323D01*
X125713979Y-89427000D01*
X125713984Y-89427000D01*
X125731117Y-89423592D01*
X124839317Y-90315393D01*
X124575920Y-90263000D01*
X124344080Y-90263000D01*
X124000758Y-90331291D01*
X123611431Y-90591431D01*
X123351291Y-90980758D01*
X123259942Y-91440000D01*
X123351291Y-91899242D01*
X123611431Y-92288569D01*
X124000758Y-92548709D01*
X124344080Y-92617000D01*
X124575920Y-92617000D01*
X124864016Y-92559694D01*
X124627116Y-92796594D01*
X123610000Y-92796594D01*
X123482411Y-92821973D01*
X123374246Y-92894246D01*
X123301973Y-93002411D01*
X123276594Y-93130000D01*
X123276594Y-94830000D01*
X123301973Y-94957589D01*
X123374246Y-95065754D01*
X123482411Y-95138027D01*
X123610000Y-95163406D01*
X125310000Y-95163406D01*
X125437589Y-95138027D01*
X125545754Y-95065754D01*
X125618027Y-94957589D01*
X125643406Y-94830000D01*
X125643406Y-93270884D01*
X128816884Y-90097406D01*
X129855000Y-90097406D01*
X129982589Y-90072027D01*
X130090754Y-89999754D01*
X130163027Y-89891589D01*
X130188406Y-89764000D01*
X130188406Y-89314000D01*
X130168515Y-89214000D01*
X130188406Y-89114000D01*
X130188406Y-88664000D01*
X130168515Y-88564000D01*
X130188406Y-88464000D01*
X130188406Y-88014000D01*
X130168515Y-87914000D01*
X130188406Y-87814000D01*
X130188406Y-87364000D01*
X130168515Y-87264000D01*
X130188406Y-87164000D01*
X130188406Y-86714000D01*
X130168515Y-86614000D01*
X130188406Y-86514000D01*
X130188406Y-86064000D01*
X130168515Y-85964000D01*
X130188406Y-85864000D01*
X130188406Y-85414000D01*
X130168515Y-85314000D01*
X130188406Y-85214000D01*
X130188406Y-84866000D01*
X130203099Y-84866000D01*
X130254995Y-84876323D01*
X130306895Y-84866000D01*
X130306903Y-84866000D01*
X130460625Y-84835423D01*
X130633341Y-84720017D01*
X130634941Y-84718948D01*
X130634941Y-84718947D01*
X130634945Y-84718945D01*
X130739388Y-84562637D01*
X130751421Y-84544629D01*
X130751421Y-84544628D01*
X130751423Y-84544625D01*
X130792324Y-84339000D01*
X130782000Y-84287097D01*
X130782011Y-83067000D01*
X133320677Y-83067000D01*
X133331000Y-83118898D01*
X133331000Y-83684102D01*
X133320677Y-83736000D01*
X133331000Y-83787898D01*
X133331000Y-84240102D01*
X133320677Y-84292000D01*
X133331000Y-84343898D01*
X133331000Y-84343903D01*
X133359275Y-84486049D01*
X133361578Y-84497625D01*
X133448654Y-84627944D01*
X133448658Y-84627948D01*
X133478056Y-84671945D01*
X133506229Y-84690769D01*
X133525055Y-84718945D01*
X133699375Y-84835423D01*
X133853097Y-84866000D01*
X133853102Y-84866000D01*
X133904999Y-84876323D01*
X133956897Y-84866000D01*
X133971594Y-84866000D01*
X133971594Y-85214000D01*
X133991485Y-85314000D01*
X133971594Y-85414000D01*
X133971594Y-85864000D01*
X133991485Y-85964000D01*
X133971594Y-86064000D01*
X133971594Y-86514000D01*
X133991485Y-86614000D01*
X133971594Y-86714000D01*
X133971594Y-87164000D01*
X133991485Y-87264000D01*
X133971594Y-87364000D01*
X133971594Y-87814000D01*
X133991485Y-87914000D01*
X133971594Y-88014000D01*
X133971594Y-88464000D01*
X133991485Y-88564000D01*
X133971594Y-88664000D01*
X133971594Y-89114000D01*
X133991485Y-89214000D01*
X133971594Y-89314000D01*
X133971594Y-89764000D01*
X133996973Y-89891589D01*
X134069246Y-89999754D01*
X134177411Y-90072027D01*
X134305000Y-90097406D01*
X135343116Y-90097406D01*
X138516594Y-93270884D01*
X138516594Y-94830000D01*
X138541973Y-94957589D01*
X138614246Y-95065754D01*
X138722411Y-95138027D01*
X138850000Y-95163406D01*
X140550000Y-95163406D01*
X140677589Y-95138027D01*
X140785754Y-95065754D01*
X140858027Y-94957589D01*
X140883406Y-94830000D01*
X140883406Y-93130000D01*
X140858027Y-93002411D01*
X140785754Y-92894246D01*
X140677589Y-92821973D01*
X140550000Y-92796594D01*
X139532884Y-92796594D01*
X139295984Y-92559694D01*
X139584080Y-92617000D01*
X139815920Y-92617000D01*
X140159242Y-92548709D01*
X140548569Y-92288569D01*
X140808709Y-91899242D01*
X140900058Y-91440000D01*
X140808709Y-90980758D01*
X140548569Y-90591431D01*
X140159242Y-90331291D01*
X139815920Y-90263000D01*
X139584080Y-90263000D01*
X139320683Y-90315393D01*
X139259349Y-90254059D01*
X139259347Y-90254056D01*
X137771290Y-88766000D01*
X138526596Y-88766000D01*
X138499942Y-88900000D01*
X138591291Y-89359242D01*
X138851431Y-89748569D01*
X139240758Y-90008709D01*
X139584080Y-90077000D01*
X139815920Y-90077000D01*
X140159242Y-90008709D01*
X140548569Y-89748569D01*
X140808709Y-89359242D01*
X140900058Y-88900000D01*
X140808709Y-88440758D01*
X140548569Y-88051431D01*
X140159242Y-87791291D01*
X139815920Y-87723000D01*
X139584080Y-87723000D01*
X139299918Y-87779523D01*
X139244625Y-87742577D01*
X139092894Y-87712396D01*
X139320683Y-87484607D01*
X139584080Y-87537000D01*
X139815920Y-87537000D01*
X140159242Y-87468709D01*
X140548569Y-87208569D01*
X140808709Y-86819242D01*
X140900058Y-86360000D01*
X140808709Y-85900758D01*
X140548569Y-85511431D01*
X140159242Y-85251291D01*
X139815920Y-85183000D01*
X139584080Y-85183000D01*
X139240758Y-85251291D01*
X138947038Y-85447548D01*
X138947039Y-85318252D01*
X139320683Y-84944607D01*
X139584080Y-84997000D01*
X139815920Y-84997000D01*
X140159242Y-84928709D01*
X140548569Y-84668569D01*
X140808709Y-84279242D01*
X140900058Y-83820000D01*
X140808709Y-83360758D01*
X140548569Y-82971431D01*
X140159242Y-82711291D01*
X139815920Y-82643000D01*
X139584080Y-82643000D01*
X139240758Y-82711291D01*
X138851431Y-82971431D01*
X138591291Y-83360758D01*
X138499942Y-83820000D01*
X138575393Y-84199317D01*
X138347029Y-84427681D01*
X138347030Y-82176179D01*
X138668466Y-81854743D01*
X138851431Y-82128569D01*
X139240758Y-82388709D01*
X139584080Y-82457000D01*
X139815920Y-82457000D01*
X140159242Y-82388709D01*
X140548569Y-82128569D01*
X140808709Y-81739242D01*
X140900058Y-81280000D01*
X140808709Y-80820758D01*
X140548569Y-80431431D01*
X140159242Y-80171291D01*
X139815920Y-80103000D01*
X139584080Y-80103000D01*
X139240758Y-80171291D01*
X138851431Y-80431431D01*
X138636565Y-80753000D01*
X138549818Y-80753000D01*
X138497919Y-80742677D01*
X138446020Y-80753000D01*
X138446016Y-80753000D01*
X138428882Y-80756408D01*
X139320683Y-79864607D01*
X139584080Y-79917000D01*
X139815920Y-79917000D01*
X140159242Y-79848709D01*
X140548569Y-79588569D01*
X140808709Y-79199242D01*
X140900058Y-78740000D01*
X140808709Y-78280758D01*
X140548569Y-77891431D01*
X140159242Y-77631291D01*
X139815920Y-77563000D01*
X139584080Y-77563000D01*
X139240758Y-77631291D01*
X138851431Y-77891431D01*
X138591291Y-78280758D01*
X138499942Y-78740000D01*
X138575393Y-79119317D01*
X137147010Y-80547700D01*
X137147010Y-79498280D01*
X139320684Y-77324607D01*
X139584080Y-77377000D01*
X139815920Y-77377000D01*
X140159242Y-77308709D01*
X140548569Y-77048569D01*
X140808709Y-76659242D01*
X140900058Y-76200000D01*
X140808709Y-75740758D01*
X140548569Y-75351431D01*
X140159242Y-75091291D01*
X139815920Y-75023000D01*
X139584080Y-75023000D01*
X139240758Y-75091291D01*
X138851431Y-75351431D01*
X138591291Y-75740758D01*
X138499942Y-76200000D01*
X138575393Y-76579316D01*
X136553406Y-78601304D01*
X136553406Y-78035999D01*
X136508997Y-77812740D01*
X136382531Y-77623469D01*
X136193260Y-77497003D01*
X135970001Y-77452594D01*
X135319999Y-77452594D01*
X135096740Y-77497003D01*
X134907469Y-77623469D01*
X134781003Y-77812740D01*
X134736594Y-78035999D01*
X134736594Y-78936001D01*
X134781003Y-79159260D01*
X134907469Y-79348531D01*
X135018000Y-79422385D01*
X135018001Y-80343615D01*
X134907469Y-80417469D01*
X134781003Y-80606740D01*
X134736594Y-80829999D01*
X134736594Y-81443115D01*
X134497000Y-81682709D01*
X134497000Y-81488750D01*
X134415250Y-81407000D01*
X133722000Y-81407000D01*
X133722000Y-82225250D01*
X133803750Y-82307000D01*
X133872710Y-82307000D01*
X133522053Y-82657657D01*
X133478056Y-82687055D01*
X133448658Y-82731052D01*
X133448654Y-82731056D01*
X133361578Y-82861375D01*
X133331000Y-83015097D01*
X133331000Y-83015102D01*
X133320677Y-83067000D01*
X130782011Y-83067000D01*
X130782026Y-81488750D01*
X132693000Y-81488750D01*
X132693000Y-82045045D01*
X132742783Y-82165231D01*
X132834770Y-82257217D01*
X132954956Y-82307000D01*
X133386250Y-82307000D01*
X133468000Y-82225250D01*
X133468000Y-81407000D01*
X132774750Y-81407000D01*
X132693000Y-81488750D01*
X130782026Y-81488750D01*
X130782030Y-81077935D01*
X130792354Y-81026032D01*
X130782029Y-80974125D01*
X130751455Y-80820412D01*
X130751454Y-80820410D01*
X130751453Y-80820406D01*
X130664377Y-80690087D01*
X130664373Y-80690083D01*
X130634979Y-80646091D01*
X130590983Y-80616693D01*
X130489245Y-80514955D01*
X132693000Y-80514955D01*
X132693000Y-81071250D01*
X132774750Y-81153000D01*
X133468000Y-81153000D01*
X133468000Y-80334750D01*
X133722000Y-80334750D01*
X133722000Y-81153000D01*
X134415250Y-81153000D01*
X134497000Y-81071250D01*
X134497000Y-80514955D01*
X134447217Y-80394769D01*
X134355230Y-80302783D01*
X134235044Y-80253000D01*
X133803750Y-80253000D01*
X133722000Y-80334750D01*
X133468000Y-80334750D01*
X133386250Y-80253000D01*
X132954956Y-80253000D01*
X132834770Y-80302783D01*
X132742783Y-80394769D01*
X132693000Y-80514955D01*
X130489245Y-80514955D01*
X129280685Y-79306395D01*
X129378997Y-79159260D01*
X129423406Y-78936001D01*
X129423406Y-78694750D01*
X129663000Y-78694750D01*
X129663000Y-79251045D01*
X129712783Y-79371231D01*
X129804770Y-79463217D01*
X129924956Y-79513000D01*
X130356250Y-79513000D01*
X130438000Y-79431250D01*
X130438000Y-78613000D01*
X130692000Y-78613000D01*
X130692000Y-79431250D01*
X130773750Y-79513000D01*
X131205044Y-79513000D01*
X131325230Y-79463217D01*
X131417217Y-79371231D01*
X131467000Y-79251045D01*
X131467000Y-78694750D01*
X131385250Y-78613000D01*
X130692000Y-78613000D01*
X130438000Y-78613000D01*
X129744750Y-78613000D01*
X129663000Y-78694750D01*
X129423406Y-78694750D01*
X129423406Y-78035999D01*
X129378997Y-77812740D01*
X129317669Y-77720955D01*
X129663000Y-77720955D01*
X129663000Y-78277250D01*
X129744750Y-78359000D01*
X130438000Y-78359000D01*
X130438000Y-77540750D01*
X130692000Y-77540750D01*
X130692000Y-78359000D01*
X131385250Y-78359000D01*
X131467000Y-78277250D01*
X131467000Y-78035999D01*
X132686594Y-78035999D01*
X132686594Y-78936001D01*
X132731003Y-79159260D01*
X132857469Y-79348531D01*
X133046740Y-79474997D01*
X133269999Y-79519406D01*
X133920001Y-79519406D01*
X134143260Y-79474997D01*
X134332531Y-79348531D01*
X134458997Y-79159260D01*
X134503406Y-78936001D01*
X134503406Y-78035999D01*
X134458997Y-77812740D01*
X134332531Y-77623469D01*
X134222000Y-77549615D01*
X134222000Y-75960711D01*
X134358641Y-75824070D01*
X134504080Y-75853000D01*
X134735920Y-75853000D01*
X135079242Y-75784709D01*
X135468569Y-75524569D01*
X135728709Y-75135242D01*
X135820058Y-74676000D01*
X135728709Y-74216758D01*
X135468569Y-73827431D01*
X135079242Y-73567291D01*
X134735920Y-73499000D01*
X134504080Y-73499000D01*
X134160758Y-73567291D01*
X133771431Y-73827431D01*
X133511291Y-74216758D01*
X133419942Y-74676000D01*
X133471930Y-74937359D01*
X133195307Y-75213982D01*
X133142960Y-75248959D01*
X133107982Y-75301307D01*
X133107981Y-75301308D01*
X133004380Y-75456358D01*
X132955718Y-75701000D01*
X132968001Y-75762751D01*
X132968000Y-77549615D01*
X132857469Y-77623469D01*
X132731003Y-77812740D01*
X132686594Y-78035999D01*
X131467000Y-78035999D01*
X131467000Y-77720955D01*
X131417217Y-77600769D01*
X131325230Y-77508783D01*
X131205044Y-77459000D01*
X130773750Y-77459000D01*
X130692000Y-77540750D01*
X130438000Y-77540750D01*
X130356250Y-77459000D01*
X129924956Y-77459000D01*
X129804770Y-77508783D01*
X129712783Y-77600769D01*
X129663000Y-77720955D01*
X129317669Y-77720955D01*
X129252531Y-77623469D01*
X129142000Y-77549615D01*
X129142000Y-75960711D01*
X129243305Y-75859406D01*
X130390000Y-75859406D01*
X130517589Y-75834027D01*
X130625754Y-75761754D01*
X130698027Y-75653589D01*
X130723406Y-75526000D01*
X130723406Y-74984487D01*
X130944134Y-74984487D01*
X131148650Y-75395682D01*
X131494955Y-75697312D01*
X131771515Y-75811855D01*
X131953000Y-75763862D01*
X131953000Y-74803000D01*
X132207000Y-74803000D01*
X132207000Y-75763862D01*
X132388485Y-75811855D01*
X132665045Y-75697312D01*
X133011350Y-75395682D01*
X133215866Y-74984487D01*
X133168390Y-74803000D01*
X132207000Y-74803000D01*
X131953000Y-74803000D01*
X130991610Y-74803000D01*
X130944134Y-74984487D01*
X130723406Y-74984487D01*
X130723406Y-74367513D01*
X130944134Y-74367513D01*
X130991610Y-74549000D01*
X131953000Y-74549000D01*
X131953000Y-73588138D01*
X132207000Y-73588138D01*
X132207000Y-74549000D01*
X133168390Y-74549000D01*
X133215866Y-74367513D01*
X133011350Y-73956318D01*
X132665045Y-73654688D01*
X132388485Y-73540145D01*
X132207000Y-73588138D01*
X131953000Y-73588138D01*
X131771515Y-73540145D01*
X131494955Y-73654688D01*
X131148650Y-73956318D01*
X130944134Y-74367513D01*
X130723406Y-74367513D01*
X130723406Y-73826000D01*
X130698027Y-73698411D01*
X130625754Y-73590246D01*
X130517589Y-73517973D01*
X130390000Y-73492594D01*
X128690000Y-73492594D01*
X128562411Y-73517973D01*
X128454246Y-73590246D01*
X128381973Y-73698411D01*
X128356594Y-73826000D01*
X128356594Y-74972695D01*
X128115307Y-75213982D01*
X128062960Y-75248959D01*
X128027982Y-75301307D01*
X128027981Y-75301308D01*
X127924380Y-75456358D01*
X127875718Y-75701000D01*
X127888001Y-75762751D01*
X127888000Y-77549615D01*
X127777469Y-77623469D01*
X127651003Y-77812740D01*
X127606594Y-78035999D01*
X127606594Y-78601303D01*
X125584607Y-76579317D01*
X125660058Y-76200000D01*
X125568709Y-75740758D01*
X125308569Y-75351431D01*
X124919242Y-75091291D01*
X124575920Y-75023000D01*
X124344080Y-75023000D01*
X124000758Y-75091291D01*
X123611431Y-75351431D01*
X123351291Y-75740758D01*
X123259942Y-76200000D01*
X121587000Y-76200000D01*
X121587000Y-73051421D01*
X121649755Y-72695518D01*
X121817038Y-72405776D01*
X122073329Y-72190722D01*
X122400396Y-72071680D01*
X122568187Y-72057000D01*
X141578579Y-72057000D01*
X141934482Y-72119755D01*
G36*
X129728029Y-81244321D02*
X129728012Y-83137000D01*
X129338750Y-83137000D01*
X129257000Y-83218750D01*
X129257000Y-83576500D01*
X129277000Y-83576500D01*
X129277000Y-83780594D01*
X128983000Y-83780594D01*
X128983000Y-83576500D01*
X129003000Y-83576500D01*
X129003000Y-83218750D01*
X128921250Y-83137000D01*
X128339956Y-83137000D01*
X128225500Y-83184410D01*
X128225500Y-79741790D01*
X129728029Y-81244321D01*
X129728029Y-81244321D01*
G37*
X129728029Y-81244321D02*
X129728012Y-83137000D01*
X129338750Y-83137000D01*
X129257000Y-83218750D01*
X129257000Y-83576500D01*
X129277000Y-83576500D01*
X129277000Y-83780594D01*
X128983000Y-83780594D01*
X128983000Y-83576500D01*
X129003000Y-83576500D01*
X129003000Y-83218750D01*
X128921250Y-83137000D01*
X128339956Y-83137000D01*
X128225500Y-83184410D01*
X128225500Y-79741790D01*
X129728029Y-81244321D01*
G04 #@! TD*
M02*
