G04 #@! TF.GenerationSoftware,KiCad,Pcbnew,(5.0.2)-1*
G04 #@! TF.CreationDate,2019-08-04T21:59:47-04:00*
G04 #@! TF.ProjectId,LSF0108PWR_Breakout,4c534630-3130-4385-9057-525f42726561,rev?*
G04 #@! TF.SameCoordinates,Original*
G04 #@! TF.FileFunction,Soldermask,Top*
G04 #@! TF.FilePolarity,Negative*
%FSLAX46Y46*%
G04 Gerber Fmt 4.6, Leading zero omitted, Abs format (unit mm)*
G04 Created by KiCad (PCBNEW (5.0.2)-1) date 8/4/2019 9:59:47 PM*
%MOMM*%
%LPD*%
G01*
G04 APERTURE LIST*
%ADD10C,0.100000*%
G04 APERTURE END LIST*
D10*
G36*
X140601000Y-94881000D02*
X138799000Y-94881000D01*
X138799000Y-93079000D01*
X140601000Y-93079000D01*
X140601000Y-94881000D01*
X140601000Y-94881000D01*
G37*
G36*
X125361000Y-94881000D02*
X123559000Y-94881000D01*
X123559000Y-93079000D01*
X125361000Y-93079000D01*
X125361000Y-94881000D01*
X125361000Y-94881000D01*
G37*
G36*
X139810443Y-90545519D02*
X139876627Y-90552037D01*
X139989853Y-90586384D01*
X140046467Y-90603557D01*
X140185087Y-90677652D01*
X140202991Y-90687222D01*
X140238729Y-90716552D01*
X140340186Y-90799814D01*
X140423448Y-90901271D01*
X140452778Y-90937009D01*
X140452779Y-90937011D01*
X140536443Y-91093533D01*
X140536443Y-91093534D01*
X140587963Y-91263373D01*
X140605359Y-91440000D01*
X140587963Y-91616627D01*
X140553616Y-91729853D01*
X140536443Y-91786467D01*
X140462348Y-91925087D01*
X140452778Y-91942991D01*
X140423448Y-91978729D01*
X140340186Y-92080186D01*
X140238729Y-92163448D01*
X140202991Y-92192778D01*
X140202989Y-92192779D01*
X140046467Y-92276443D01*
X139989853Y-92293616D01*
X139876627Y-92327963D01*
X139810443Y-92334481D01*
X139744260Y-92341000D01*
X139655740Y-92341000D01*
X139589557Y-92334481D01*
X139523373Y-92327963D01*
X139410147Y-92293616D01*
X139353533Y-92276443D01*
X139197011Y-92192779D01*
X139197009Y-92192778D01*
X139161271Y-92163448D01*
X139059814Y-92080186D01*
X138976552Y-91978729D01*
X138947222Y-91942991D01*
X138937652Y-91925087D01*
X138863557Y-91786467D01*
X138846384Y-91729853D01*
X138812037Y-91616627D01*
X138794641Y-91440000D01*
X138812037Y-91263373D01*
X138863557Y-91093534D01*
X138863557Y-91093533D01*
X138947221Y-90937011D01*
X138947222Y-90937009D01*
X138976552Y-90901271D01*
X139059814Y-90799814D01*
X139161271Y-90716552D01*
X139197009Y-90687222D01*
X139214913Y-90677652D01*
X139353533Y-90603557D01*
X139410147Y-90586384D01*
X139523373Y-90552037D01*
X139589557Y-90545519D01*
X139655740Y-90539000D01*
X139744260Y-90539000D01*
X139810443Y-90545519D01*
X139810443Y-90545519D01*
G37*
G36*
X124570443Y-90545519D02*
X124636627Y-90552037D01*
X124749853Y-90586384D01*
X124806467Y-90603557D01*
X124945087Y-90677652D01*
X124962991Y-90687222D01*
X124998729Y-90716552D01*
X125100186Y-90799814D01*
X125183448Y-90901271D01*
X125212778Y-90937009D01*
X125212779Y-90937011D01*
X125296443Y-91093533D01*
X125296443Y-91093534D01*
X125347963Y-91263373D01*
X125365359Y-91440000D01*
X125347963Y-91616627D01*
X125313616Y-91729853D01*
X125296443Y-91786467D01*
X125222348Y-91925087D01*
X125212778Y-91942991D01*
X125183448Y-91978729D01*
X125100186Y-92080186D01*
X124998729Y-92163448D01*
X124962991Y-92192778D01*
X124962989Y-92192779D01*
X124806467Y-92276443D01*
X124749853Y-92293616D01*
X124636627Y-92327963D01*
X124570443Y-92334481D01*
X124504260Y-92341000D01*
X124415740Y-92341000D01*
X124349557Y-92334481D01*
X124283373Y-92327963D01*
X124170147Y-92293616D01*
X124113533Y-92276443D01*
X123957011Y-92192779D01*
X123957009Y-92192778D01*
X123921271Y-92163448D01*
X123819814Y-92080186D01*
X123736552Y-91978729D01*
X123707222Y-91942991D01*
X123697652Y-91925087D01*
X123623557Y-91786467D01*
X123606384Y-91729853D01*
X123572037Y-91616627D01*
X123554641Y-91440000D01*
X123572037Y-91263373D01*
X123623557Y-91093534D01*
X123623557Y-91093533D01*
X123707221Y-90937011D01*
X123707222Y-90937009D01*
X123736552Y-90901271D01*
X123819814Y-90799814D01*
X123921271Y-90716552D01*
X123957009Y-90687222D01*
X123974913Y-90677652D01*
X124113533Y-90603557D01*
X124170147Y-90586384D01*
X124283373Y-90552037D01*
X124349557Y-90545519D01*
X124415740Y-90539000D01*
X124504260Y-90539000D01*
X124570443Y-90545519D01*
X124570443Y-90545519D01*
G37*
G36*
X135806000Y-89815000D02*
X134254000Y-89815000D01*
X134254000Y-83413000D01*
X135806000Y-83413000D01*
X135806000Y-89815000D01*
X135806000Y-89815000D01*
G37*
G36*
X129906000Y-89815000D02*
X128354000Y-89815000D01*
X128354000Y-83413000D01*
X129906000Y-83413000D01*
X129906000Y-89815000D01*
X129906000Y-89815000D01*
G37*
G36*
X139810443Y-88005519D02*
X139876627Y-88012037D01*
X139989853Y-88046384D01*
X140046467Y-88063557D01*
X140185087Y-88137652D01*
X140202991Y-88147222D01*
X140238729Y-88176552D01*
X140340186Y-88259814D01*
X140423448Y-88361271D01*
X140452778Y-88397009D01*
X140452779Y-88397011D01*
X140536443Y-88553533D01*
X140536443Y-88553534D01*
X140587963Y-88723373D01*
X140605359Y-88900000D01*
X140587963Y-89076627D01*
X140561155Y-89165000D01*
X140536443Y-89246467D01*
X140462348Y-89385087D01*
X140452778Y-89402991D01*
X140423448Y-89438729D01*
X140340186Y-89540186D01*
X140238729Y-89623448D01*
X140202991Y-89652778D01*
X140202989Y-89652779D01*
X140046467Y-89736443D01*
X139989853Y-89753616D01*
X139876627Y-89787963D01*
X139810443Y-89794481D01*
X139744260Y-89801000D01*
X139655740Y-89801000D01*
X139589557Y-89794481D01*
X139523373Y-89787963D01*
X139410147Y-89753616D01*
X139353533Y-89736443D01*
X139197011Y-89652779D01*
X139197009Y-89652778D01*
X139161271Y-89623448D01*
X139059814Y-89540186D01*
X138976552Y-89438729D01*
X138947222Y-89402991D01*
X138937652Y-89385087D01*
X138863557Y-89246467D01*
X138838845Y-89165000D01*
X138812037Y-89076627D01*
X138794641Y-88900000D01*
X138812037Y-88723373D01*
X138863557Y-88553534D01*
X138863557Y-88553533D01*
X138947221Y-88397011D01*
X138947222Y-88397009D01*
X138976552Y-88361271D01*
X139059814Y-88259814D01*
X139161271Y-88176552D01*
X139197009Y-88147222D01*
X139214913Y-88137652D01*
X139353533Y-88063557D01*
X139410147Y-88046384D01*
X139523373Y-88012037D01*
X139589557Y-88005519D01*
X139655740Y-87999000D01*
X139744260Y-87999000D01*
X139810443Y-88005519D01*
X139810443Y-88005519D01*
G37*
G36*
X124570443Y-88005519D02*
X124636627Y-88012037D01*
X124749853Y-88046384D01*
X124806467Y-88063557D01*
X124945087Y-88137652D01*
X124962991Y-88147222D01*
X124998729Y-88176552D01*
X125100186Y-88259814D01*
X125183448Y-88361271D01*
X125212778Y-88397009D01*
X125212779Y-88397011D01*
X125296443Y-88553533D01*
X125296443Y-88553534D01*
X125347963Y-88723373D01*
X125365359Y-88900000D01*
X125347963Y-89076627D01*
X125321155Y-89165000D01*
X125296443Y-89246467D01*
X125222348Y-89385087D01*
X125212778Y-89402991D01*
X125183448Y-89438729D01*
X125100186Y-89540186D01*
X124998729Y-89623448D01*
X124962991Y-89652778D01*
X124962989Y-89652779D01*
X124806467Y-89736443D01*
X124749853Y-89753616D01*
X124636627Y-89787963D01*
X124570443Y-89794481D01*
X124504260Y-89801000D01*
X124415740Y-89801000D01*
X124349557Y-89794481D01*
X124283373Y-89787963D01*
X124170147Y-89753616D01*
X124113533Y-89736443D01*
X123957011Y-89652779D01*
X123957009Y-89652778D01*
X123921271Y-89623448D01*
X123819814Y-89540186D01*
X123736552Y-89438729D01*
X123707222Y-89402991D01*
X123697652Y-89385087D01*
X123623557Y-89246467D01*
X123598845Y-89165000D01*
X123572037Y-89076627D01*
X123554641Y-88900000D01*
X123572037Y-88723373D01*
X123623557Y-88553534D01*
X123623557Y-88553533D01*
X123707221Y-88397011D01*
X123707222Y-88397009D01*
X123736552Y-88361271D01*
X123819814Y-88259814D01*
X123921271Y-88176552D01*
X123957009Y-88147222D01*
X123974913Y-88137652D01*
X124113533Y-88063557D01*
X124170147Y-88046384D01*
X124283373Y-88012037D01*
X124349557Y-88005519D01*
X124415740Y-87999000D01*
X124504260Y-87999000D01*
X124570443Y-88005519D01*
X124570443Y-88005519D01*
G37*
G36*
X124570442Y-85465518D02*
X124636627Y-85472037D01*
X124749853Y-85506384D01*
X124806467Y-85523557D01*
X124945087Y-85597652D01*
X124962991Y-85607222D01*
X124998729Y-85636552D01*
X125100186Y-85719814D01*
X125183448Y-85821271D01*
X125212778Y-85857009D01*
X125212779Y-85857011D01*
X125296443Y-86013533D01*
X125296443Y-86013534D01*
X125347963Y-86183373D01*
X125365359Y-86360000D01*
X125347963Y-86536627D01*
X125339356Y-86565000D01*
X125296443Y-86706467D01*
X125222348Y-86845087D01*
X125212778Y-86862991D01*
X125183448Y-86898729D01*
X125100186Y-87000186D01*
X124998729Y-87083448D01*
X124962991Y-87112778D01*
X124962989Y-87112779D01*
X124806467Y-87196443D01*
X124749853Y-87213616D01*
X124636627Y-87247963D01*
X124570442Y-87254482D01*
X124504260Y-87261000D01*
X124415740Y-87261000D01*
X124349558Y-87254482D01*
X124283373Y-87247963D01*
X124170147Y-87213616D01*
X124113533Y-87196443D01*
X123957011Y-87112779D01*
X123957009Y-87112778D01*
X123921271Y-87083448D01*
X123819814Y-87000186D01*
X123736552Y-86898729D01*
X123707222Y-86862991D01*
X123697652Y-86845087D01*
X123623557Y-86706467D01*
X123580644Y-86565000D01*
X123572037Y-86536627D01*
X123554641Y-86360000D01*
X123572037Y-86183373D01*
X123623557Y-86013534D01*
X123623557Y-86013533D01*
X123707221Y-85857011D01*
X123707222Y-85857009D01*
X123736552Y-85821271D01*
X123819814Y-85719814D01*
X123921271Y-85636552D01*
X123957009Y-85607222D01*
X123974913Y-85597652D01*
X124113533Y-85523557D01*
X124170147Y-85506384D01*
X124283373Y-85472037D01*
X124349558Y-85465518D01*
X124415740Y-85459000D01*
X124504260Y-85459000D01*
X124570442Y-85465518D01*
X124570442Y-85465518D01*
G37*
G36*
X139810442Y-85465518D02*
X139876627Y-85472037D01*
X139989853Y-85506384D01*
X140046467Y-85523557D01*
X140185087Y-85597652D01*
X140202991Y-85607222D01*
X140238729Y-85636552D01*
X140340186Y-85719814D01*
X140423448Y-85821271D01*
X140452778Y-85857009D01*
X140452779Y-85857011D01*
X140536443Y-86013533D01*
X140536443Y-86013534D01*
X140587963Y-86183373D01*
X140605359Y-86360000D01*
X140587963Y-86536627D01*
X140579356Y-86565000D01*
X140536443Y-86706467D01*
X140462348Y-86845087D01*
X140452778Y-86862991D01*
X140423448Y-86898729D01*
X140340186Y-87000186D01*
X140238729Y-87083448D01*
X140202991Y-87112778D01*
X140202989Y-87112779D01*
X140046467Y-87196443D01*
X139989853Y-87213616D01*
X139876627Y-87247963D01*
X139810442Y-87254482D01*
X139744260Y-87261000D01*
X139655740Y-87261000D01*
X139589558Y-87254482D01*
X139523373Y-87247963D01*
X139410147Y-87213616D01*
X139353533Y-87196443D01*
X139197011Y-87112779D01*
X139197009Y-87112778D01*
X139161271Y-87083448D01*
X139059814Y-87000186D01*
X138976552Y-86898729D01*
X138947222Y-86862991D01*
X138937652Y-86845087D01*
X138863557Y-86706467D01*
X138820644Y-86565000D01*
X138812037Y-86536627D01*
X138794641Y-86360000D01*
X138812037Y-86183373D01*
X138863557Y-86013534D01*
X138863557Y-86013533D01*
X138947221Y-85857011D01*
X138947222Y-85857009D01*
X138976552Y-85821271D01*
X139059814Y-85719814D01*
X139161271Y-85636552D01*
X139197009Y-85607222D01*
X139214913Y-85597652D01*
X139353533Y-85523557D01*
X139410147Y-85506384D01*
X139523373Y-85472037D01*
X139589558Y-85465518D01*
X139655740Y-85459000D01*
X139744260Y-85459000D01*
X139810442Y-85465518D01*
X139810442Y-85465518D01*
G37*
G36*
X139810443Y-82925519D02*
X139876627Y-82932037D01*
X139989853Y-82966384D01*
X140046467Y-82983557D01*
X140185087Y-83057652D01*
X140202991Y-83067222D01*
X140238729Y-83096552D01*
X140340186Y-83179814D01*
X140423448Y-83281271D01*
X140452778Y-83317009D01*
X140452779Y-83317011D01*
X140536443Y-83473533D01*
X140536443Y-83473534D01*
X140587963Y-83643373D01*
X140605359Y-83820000D01*
X140587963Y-83996627D01*
X140567829Y-84063000D01*
X140536443Y-84166467D01*
X140462348Y-84305087D01*
X140452778Y-84322991D01*
X140423448Y-84358729D01*
X140340186Y-84460186D01*
X140238729Y-84543448D01*
X140202991Y-84572778D01*
X140202989Y-84572779D01*
X140046467Y-84656443D01*
X139989853Y-84673616D01*
X139876627Y-84707963D01*
X139810443Y-84714481D01*
X139744260Y-84721000D01*
X139655740Y-84721000D01*
X139589557Y-84714481D01*
X139523373Y-84707963D01*
X139410147Y-84673616D01*
X139353533Y-84656443D01*
X139197011Y-84572779D01*
X139197009Y-84572778D01*
X139161271Y-84543448D01*
X139059814Y-84460186D01*
X138976552Y-84358729D01*
X138947222Y-84322991D01*
X138937652Y-84305087D01*
X138863557Y-84166467D01*
X138832171Y-84063000D01*
X138812037Y-83996627D01*
X138794641Y-83820000D01*
X138812037Y-83643373D01*
X138863557Y-83473534D01*
X138863557Y-83473533D01*
X138947221Y-83317011D01*
X138947222Y-83317009D01*
X138976552Y-83281271D01*
X139059814Y-83179814D01*
X139161271Y-83096552D01*
X139197009Y-83067222D01*
X139214913Y-83057652D01*
X139353533Y-82983557D01*
X139410147Y-82966384D01*
X139523373Y-82932037D01*
X139589557Y-82925519D01*
X139655740Y-82919000D01*
X139744260Y-82919000D01*
X139810443Y-82925519D01*
X139810443Y-82925519D01*
G37*
G36*
X124570443Y-82925519D02*
X124636627Y-82932037D01*
X124749853Y-82966384D01*
X124806467Y-82983557D01*
X124945087Y-83057652D01*
X124962991Y-83067222D01*
X124998729Y-83096552D01*
X125100186Y-83179814D01*
X125183448Y-83281271D01*
X125212778Y-83317009D01*
X125212779Y-83317011D01*
X125296443Y-83473533D01*
X125296443Y-83473534D01*
X125347963Y-83643373D01*
X125365359Y-83820000D01*
X125347963Y-83996627D01*
X125327829Y-84063000D01*
X125296443Y-84166467D01*
X125222348Y-84305087D01*
X125212778Y-84322991D01*
X125183448Y-84358729D01*
X125100186Y-84460186D01*
X124998729Y-84543448D01*
X124962991Y-84572778D01*
X124962989Y-84572779D01*
X124806467Y-84656443D01*
X124749853Y-84673616D01*
X124636627Y-84707963D01*
X124570443Y-84714481D01*
X124504260Y-84721000D01*
X124415740Y-84721000D01*
X124349557Y-84714481D01*
X124283373Y-84707963D01*
X124170147Y-84673616D01*
X124113533Y-84656443D01*
X123957011Y-84572779D01*
X123957009Y-84572778D01*
X123921271Y-84543448D01*
X123819814Y-84460186D01*
X123736552Y-84358729D01*
X123707222Y-84322991D01*
X123697652Y-84305087D01*
X123623557Y-84166467D01*
X123592171Y-84063000D01*
X123572037Y-83996627D01*
X123554641Y-83820000D01*
X123572037Y-83643373D01*
X123623557Y-83473534D01*
X123623557Y-83473533D01*
X123707221Y-83317011D01*
X123707222Y-83317009D01*
X123736552Y-83281271D01*
X123819814Y-83179814D01*
X123921271Y-83096552D01*
X123957009Y-83067222D01*
X123974913Y-83057652D01*
X124113533Y-82983557D01*
X124170147Y-82966384D01*
X124283373Y-82932037D01*
X124349557Y-82925519D01*
X124415740Y-82919000D01*
X124504260Y-82919000D01*
X124570443Y-82925519D01*
X124570443Y-82925519D01*
G37*
G36*
X139810442Y-80385518D02*
X139876627Y-80392037D01*
X139989853Y-80426384D01*
X140046467Y-80443557D01*
X140185087Y-80517652D01*
X140202991Y-80527222D01*
X140211530Y-80534230D01*
X140340186Y-80639814D01*
X140419665Y-80736661D01*
X140452778Y-80777009D01*
X140452779Y-80777011D01*
X140536443Y-80933533D01*
X140536443Y-80933534D01*
X140587963Y-81103373D01*
X140605359Y-81280000D01*
X140587963Y-81456627D01*
X140553616Y-81569853D01*
X140536443Y-81626467D01*
X140465694Y-81758827D01*
X140452778Y-81782991D01*
X140429032Y-81811925D01*
X140340186Y-81920186D01*
X140261049Y-81985131D01*
X140202991Y-82032778D01*
X140202989Y-82032779D01*
X140046467Y-82116443D01*
X139989853Y-82133616D01*
X139876627Y-82167963D01*
X139810443Y-82174481D01*
X139744260Y-82181000D01*
X139655740Y-82181000D01*
X139589557Y-82174481D01*
X139523373Y-82167963D01*
X139410147Y-82133616D01*
X139353533Y-82116443D01*
X139197011Y-82032779D01*
X139197009Y-82032778D01*
X139138951Y-81985131D01*
X139059814Y-81920186D01*
X138970968Y-81811925D01*
X138947222Y-81782991D01*
X138934306Y-81758827D01*
X138863557Y-81626467D01*
X138846384Y-81569853D01*
X138812037Y-81456627D01*
X138794641Y-81280000D01*
X138812037Y-81103373D01*
X138863557Y-80933534D01*
X138863557Y-80933533D01*
X138947221Y-80777011D01*
X138947222Y-80777009D01*
X138980335Y-80736661D01*
X139059814Y-80639814D01*
X139188470Y-80534230D01*
X139197009Y-80527222D01*
X139214913Y-80517652D01*
X139353533Y-80443557D01*
X139410147Y-80426384D01*
X139523373Y-80392037D01*
X139589558Y-80385518D01*
X139655740Y-80379000D01*
X139744260Y-80379000D01*
X139810442Y-80385518D01*
X139810442Y-80385518D01*
G37*
G36*
X124570442Y-80385518D02*
X124636627Y-80392037D01*
X124749853Y-80426384D01*
X124806467Y-80443557D01*
X124945087Y-80517652D01*
X124962991Y-80527222D01*
X124971530Y-80534230D01*
X125100186Y-80639814D01*
X125179665Y-80736661D01*
X125212778Y-80777009D01*
X125212779Y-80777011D01*
X125296443Y-80933533D01*
X125296443Y-80933534D01*
X125347963Y-81103373D01*
X125365359Y-81280000D01*
X125347963Y-81456627D01*
X125313616Y-81569853D01*
X125296443Y-81626467D01*
X125225694Y-81758827D01*
X125212778Y-81782991D01*
X125189032Y-81811925D01*
X125100186Y-81920186D01*
X125021049Y-81985131D01*
X124962991Y-82032778D01*
X124962989Y-82032779D01*
X124806467Y-82116443D01*
X124749853Y-82133616D01*
X124636627Y-82167963D01*
X124570443Y-82174481D01*
X124504260Y-82181000D01*
X124415740Y-82181000D01*
X124349557Y-82174481D01*
X124283373Y-82167963D01*
X124170147Y-82133616D01*
X124113533Y-82116443D01*
X123957011Y-82032779D01*
X123957009Y-82032778D01*
X123898951Y-81985131D01*
X123819814Y-81920186D01*
X123730968Y-81811925D01*
X123707222Y-81782991D01*
X123694306Y-81758827D01*
X123623557Y-81626467D01*
X123606384Y-81569853D01*
X123572037Y-81456627D01*
X123554641Y-81280000D01*
X123572037Y-81103373D01*
X123623557Y-80933534D01*
X123623557Y-80933533D01*
X123707221Y-80777011D01*
X123707222Y-80777009D01*
X123740335Y-80736661D01*
X123819814Y-80639814D01*
X123948470Y-80534230D01*
X123957009Y-80527222D01*
X123974913Y-80517652D01*
X124113533Y-80443557D01*
X124170147Y-80426384D01*
X124283373Y-80392037D01*
X124349558Y-80385518D01*
X124415740Y-80379000D01*
X124504260Y-80379000D01*
X124570442Y-80385518D01*
X124570442Y-80385518D01*
G37*
G36*
X136108677Y-80533465D02*
X136146364Y-80544898D01*
X136181103Y-80563466D01*
X136211548Y-80588452D01*
X136236534Y-80618897D01*
X136255102Y-80653636D01*
X136266535Y-80691323D01*
X136271000Y-80736661D01*
X136271000Y-81823339D01*
X136266535Y-81868677D01*
X136255102Y-81906364D01*
X136236534Y-81941103D01*
X136211548Y-81971548D01*
X136181103Y-81996534D01*
X136146364Y-82015102D01*
X136108677Y-82026535D01*
X136063339Y-82031000D01*
X135226661Y-82031000D01*
X135181323Y-82026535D01*
X135143636Y-82015102D01*
X135108897Y-81996534D01*
X135078452Y-81971548D01*
X135053466Y-81941103D01*
X135034898Y-81906364D01*
X135023465Y-81868677D01*
X135019000Y-81823339D01*
X135019000Y-80736661D01*
X135023465Y-80691323D01*
X135034898Y-80653636D01*
X135053466Y-80618897D01*
X135078452Y-80588452D01*
X135108897Y-80563466D01*
X135143636Y-80544898D01*
X135181323Y-80533465D01*
X135226661Y-80529000D01*
X136063339Y-80529000D01*
X136108677Y-80533465D01*
X136108677Y-80533465D01*
G37*
G36*
X134058677Y-80533465D02*
X134096364Y-80544898D01*
X134131103Y-80563466D01*
X134161548Y-80588452D01*
X134186534Y-80618897D01*
X134205102Y-80653636D01*
X134216535Y-80691323D01*
X134221000Y-80736661D01*
X134221000Y-81823339D01*
X134216535Y-81868677D01*
X134205102Y-81906364D01*
X134186534Y-81941103D01*
X134161548Y-81971548D01*
X134131103Y-81996534D01*
X134096364Y-82015102D01*
X134058677Y-82026535D01*
X134013339Y-82031000D01*
X133176661Y-82031000D01*
X133131323Y-82026535D01*
X133093636Y-82015102D01*
X133058897Y-81996534D01*
X133028452Y-81971548D01*
X133003466Y-81941103D01*
X132984898Y-81906364D01*
X132973465Y-81868677D01*
X132969000Y-81823339D01*
X132969000Y-80736661D01*
X132973465Y-80691323D01*
X132984898Y-80653636D01*
X133003466Y-80618897D01*
X133028452Y-80588452D01*
X133058897Y-80563466D01*
X133093636Y-80544898D01*
X133131323Y-80533465D01*
X133176661Y-80529000D01*
X134013339Y-80529000D01*
X134058677Y-80533465D01*
X134058677Y-80533465D01*
G37*
G36*
X139810443Y-77845519D02*
X139876627Y-77852037D01*
X139989853Y-77886384D01*
X140046467Y-77903557D01*
X140119624Y-77942661D01*
X140202991Y-77987222D01*
X140227301Y-78007173D01*
X140340186Y-78099814D01*
X140423448Y-78201271D01*
X140452778Y-78237009D01*
X140452779Y-78237011D01*
X140536443Y-78393533D01*
X140536443Y-78393534D01*
X140587963Y-78563373D01*
X140605359Y-78740000D01*
X140587963Y-78916627D01*
X140557235Y-79017925D01*
X140536443Y-79086467D01*
X140504032Y-79147103D01*
X140452778Y-79242991D01*
X140423448Y-79278729D01*
X140340186Y-79380186D01*
X140238729Y-79463448D01*
X140202991Y-79492778D01*
X140202989Y-79492779D01*
X140046467Y-79576443D01*
X139989853Y-79593616D01*
X139876627Y-79627963D01*
X139810442Y-79634482D01*
X139744260Y-79641000D01*
X139655740Y-79641000D01*
X139589558Y-79634482D01*
X139523373Y-79627963D01*
X139410147Y-79593616D01*
X139353533Y-79576443D01*
X139197011Y-79492779D01*
X139197009Y-79492778D01*
X139161271Y-79463448D01*
X139059814Y-79380186D01*
X138976552Y-79278729D01*
X138947222Y-79242991D01*
X138895968Y-79147103D01*
X138863557Y-79086467D01*
X138842765Y-79017925D01*
X138812037Y-78916627D01*
X138794641Y-78740000D01*
X138812037Y-78563373D01*
X138863557Y-78393534D01*
X138863557Y-78393533D01*
X138947221Y-78237011D01*
X138947222Y-78237009D01*
X138976552Y-78201271D01*
X139059814Y-78099814D01*
X139172699Y-78007173D01*
X139197009Y-77987222D01*
X139280376Y-77942661D01*
X139353533Y-77903557D01*
X139410147Y-77886384D01*
X139523373Y-77852037D01*
X139589557Y-77845519D01*
X139655740Y-77839000D01*
X139744260Y-77839000D01*
X139810443Y-77845519D01*
X139810443Y-77845519D01*
G37*
G36*
X124570443Y-77845519D02*
X124636627Y-77852037D01*
X124749853Y-77886384D01*
X124806467Y-77903557D01*
X124879624Y-77942661D01*
X124962991Y-77987222D01*
X124987301Y-78007173D01*
X125100186Y-78099814D01*
X125183448Y-78201271D01*
X125212778Y-78237009D01*
X125212779Y-78237011D01*
X125296443Y-78393533D01*
X125296443Y-78393534D01*
X125347963Y-78563373D01*
X125365359Y-78740000D01*
X125347963Y-78916627D01*
X125317235Y-79017925D01*
X125296443Y-79086467D01*
X125264032Y-79147103D01*
X125212778Y-79242991D01*
X125183448Y-79278729D01*
X125100186Y-79380186D01*
X124998729Y-79463448D01*
X124962991Y-79492778D01*
X124962989Y-79492779D01*
X124806467Y-79576443D01*
X124749853Y-79593616D01*
X124636627Y-79627963D01*
X124570442Y-79634482D01*
X124504260Y-79641000D01*
X124415740Y-79641000D01*
X124349558Y-79634482D01*
X124283373Y-79627963D01*
X124170147Y-79593616D01*
X124113533Y-79576443D01*
X123957011Y-79492779D01*
X123957009Y-79492778D01*
X123921271Y-79463448D01*
X123819814Y-79380186D01*
X123736552Y-79278729D01*
X123707222Y-79242991D01*
X123655968Y-79147103D01*
X123623557Y-79086467D01*
X123602765Y-79017925D01*
X123572037Y-78916627D01*
X123554641Y-78740000D01*
X123572037Y-78563373D01*
X123623557Y-78393534D01*
X123623557Y-78393533D01*
X123707221Y-78237011D01*
X123707222Y-78237009D01*
X123736552Y-78201271D01*
X123819814Y-78099814D01*
X123932699Y-78007173D01*
X123957009Y-77987222D01*
X124040376Y-77942661D01*
X124113533Y-77903557D01*
X124170147Y-77886384D01*
X124283373Y-77852037D01*
X124349557Y-77845519D01*
X124415740Y-77839000D01*
X124504260Y-77839000D01*
X124570443Y-77845519D01*
X124570443Y-77845519D01*
G37*
G36*
X136108677Y-77739465D02*
X136146364Y-77750898D01*
X136181103Y-77769466D01*
X136211548Y-77794452D01*
X136236534Y-77824897D01*
X136255102Y-77859636D01*
X136266535Y-77897323D01*
X136271000Y-77942661D01*
X136271000Y-79029339D01*
X136266535Y-79074677D01*
X136255102Y-79112364D01*
X136236534Y-79147103D01*
X136211548Y-79177548D01*
X136181103Y-79202534D01*
X136146364Y-79221102D01*
X136108677Y-79232535D01*
X136063339Y-79237000D01*
X135226661Y-79237000D01*
X135181323Y-79232535D01*
X135143636Y-79221102D01*
X135108897Y-79202534D01*
X135078452Y-79177548D01*
X135053466Y-79147103D01*
X135034898Y-79112364D01*
X135023465Y-79074677D01*
X135019000Y-79029339D01*
X135019000Y-77942661D01*
X135023465Y-77897323D01*
X135034898Y-77859636D01*
X135053466Y-77824897D01*
X135078452Y-77794452D01*
X135108897Y-77769466D01*
X135143636Y-77750898D01*
X135181323Y-77739465D01*
X135226661Y-77735000D01*
X136063339Y-77735000D01*
X136108677Y-77739465D01*
X136108677Y-77739465D01*
G37*
G36*
X134058677Y-77739465D02*
X134096364Y-77750898D01*
X134131103Y-77769466D01*
X134161548Y-77794452D01*
X134186534Y-77824897D01*
X134205102Y-77859636D01*
X134216535Y-77897323D01*
X134221000Y-77942661D01*
X134221000Y-79029339D01*
X134216535Y-79074677D01*
X134205102Y-79112364D01*
X134186534Y-79147103D01*
X134161548Y-79177548D01*
X134131103Y-79202534D01*
X134096364Y-79221102D01*
X134058677Y-79232535D01*
X134013339Y-79237000D01*
X133176661Y-79237000D01*
X133131323Y-79232535D01*
X133093636Y-79221102D01*
X133058897Y-79202534D01*
X133028452Y-79177548D01*
X133003466Y-79147103D01*
X132984898Y-79112364D01*
X132973465Y-79074677D01*
X132969000Y-79029339D01*
X132969000Y-77942661D01*
X132973465Y-77897323D01*
X132984898Y-77859636D01*
X133003466Y-77824897D01*
X133028452Y-77794452D01*
X133058897Y-77769466D01*
X133093636Y-77750898D01*
X133131323Y-77739465D01*
X133176661Y-77735000D01*
X134013339Y-77735000D01*
X134058677Y-77739465D01*
X134058677Y-77739465D01*
G37*
G36*
X131028677Y-77739465D02*
X131066364Y-77750898D01*
X131101103Y-77769466D01*
X131131548Y-77794452D01*
X131156534Y-77824897D01*
X131175102Y-77859636D01*
X131186535Y-77897323D01*
X131191000Y-77942661D01*
X131191000Y-79029339D01*
X131186535Y-79074677D01*
X131175102Y-79112364D01*
X131156534Y-79147103D01*
X131131548Y-79177548D01*
X131101103Y-79202534D01*
X131066364Y-79221102D01*
X131028677Y-79232535D01*
X130983339Y-79237000D01*
X130146661Y-79237000D01*
X130101323Y-79232535D01*
X130063636Y-79221102D01*
X130028897Y-79202534D01*
X129998452Y-79177548D01*
X129973466Y-79147103D01*
X129954898Y-79112364D01*
X129943465Y-79074677D01*
X129939000Y-79029339D01*
X129939000Y-77942661D01*
X129943465Y-77897323D01*
X129954898Y-77859636D01*
X129973466Y-77824897D01*
X129998452Y-77794452D01*
X130028897Y-77769466D01*
X130063636Y-77750898D01*
X130101323Y-77739465D01*
X130146661Y-77735000D01*
X130983339Y-77735000D01*
X131028677Y-77739465D01*
X131028677Y-77739465D01*
G37*
G36*
X128978677Y-77739465D02*
X129016364Y-77750898D01*
X129051103Y-77769466D01*
X129081548Y-77794452D01*
X129106534Y-77824897D01*
X129125102Y-77859636D01*
X129136535Y-77897323D01*
X129141000Y-77942661D01*
X129141000Y-79029339D01*
X129136535Y-79074677D01*
X129125102Y-79112364D01*
X129106534Y-79147103D01*
X129081548Y-79177548D01*
X129051103Y-79202534D01*
X129016364Y-79221102D01*
X128978677Y-79232535D01*
X128933339Y-79237000D01*
X128096661Y-79237000D01*
X128051323Y-79232535D01*
X128013636Y-79221102D01*
X127978897Y-79202534D01*
X127948452Y-79177548D01*
X127923466Y-79147103D01*
X127904898Y-79112364D01*
X127893465Y-79074677D01*
X127889000Y-79029339D01*
X127889000Y-77942661D01*
X127893465Y-77897323D01*
X127904898Y-77859636D01*
X127923466Y-77824897D01*
X127948452Y-77794452D01*
X127978897Y-77769466D01*
X128013636Y-77750898D01*
X128051323Y-77739465D01*
X128096661Y-77735000D01*
X128933339Y-77735000D01*
X128978677Y-77739465D01*
X128978677Y-77739465D01*
G37*
G36*
X139810442Y-75305518D02*
X139876627Y-75312037D01*
X139989853Y-75346384D01*
X140046467Y-75363557D01*
X140168485Y-75428778D01*
X140202991Y-75447222D01*
X140238729Y-75476552D01*
X140340186Y-75559814D01*
X140423448Y-75661271D01*
X140452778Y-75697009D01*
X140452779Y-75697011D01*
X140536443Y-75853533D01*
X140536443Y-75853534D01*
X140587963Y-76023373D01*
X140605359Y-76200000D01*
X140587963Y-76376627D01*
X140553616Y-76489853D01*
X140536443Y-76546467D01*
X140462348Y-76685087D01*
X140452778Y-76702991D01*
X140423448Y-76738729D01*
X140340186Y-76840186D01*
X140238729Y-76923448D01*
X140202991Y-76952778D01*
X140202989Y-76952779D01*
X140046467Y-77036443D01*
X139989853Y-77053616D01*
X139876627Y-77087963D01*
X139810442Y-77094482D01*
X139744260Y-77101000D01*
X139655740Y-77101000D01*
X139589558Y-77094482D01*
X139523373Y-77087963D01*
X139410147Y-77053616D01*
X139353533Y-77036443D01*
X139197011Y-76952779D01*
X139197009Y-76952778D01*
X139161271Y-76923448D01*
X139059814Y-76840186D01*
X138976552Y-76738729D01*
X138947222Y-76702991D01*
X138937652Y-76685087D01*
X138863557Y-76546467D01*
X138846384Y-76489853D01*
X138812037Y-76376627D01*
X138794641Y-76200000D01*
X138812037Y-76023373D01*
X138863557Y-75853534D01*
X138863557Y-75853533D01*
X138947221Y-75697011D01*
X138947222Y-75697009D01*
X138976552Y-75661271D01*
X139059814Y-75559814D01*
X139161271Y-75476552D01*
X139197009Y-75447222D01*
X139231515Y-75428778D01*
X139353533Y-75363557D01*
X139410147Y-75346384D01*
X139523373Y-75312037D01*
X139589558Y-75305518D01*
X139655740Y-75299000D01*
X139744260Y-75299000D01*
X139810442Y-75305518D01*
X139810442Y-75305518D01*
G37*
G36*
X124570442Y-75305518D02*
X124636627Y-75312037D01*
X124749853Y-75346384D01*
X124806467Y-75363557D01*
X124928485Y-75428778D01*
X124962991Y-75447222D01*
X124998729Y-75476552D01*
X125100186Y-75559814D01*
X125183448Y-75661271D01*
X125212778Y-75697009D01*
X125212779Y-75697011D01*
X125296443Y-75853533D01*
X125296443Y-75853534D01*
X125347963Y-76023373D01*
X125365359Y-76200000D01*
X125347963Y-76376627D01*
X125313616Y-76489853D01*
X125296443Y-76546467D01*
X125222348Y-76685087D01*
X125212778Y-76702991D01*
X125183448Y-76738729D01*
X125100186Y-76840186D01*
X124998729Y-76923448D01*
X124962991Y-76952778D01*
X124962989Y-76952779D01*
X124806467Y-77036443D01*
X124749853Y-77053616D01*
X124636627Y-77087963D01*
X124570442Y-77094482D01*
X124504260Y-77101000D01*
X124415740Y-77101000D01*
X124349558Y-77094482D01*
X124283373Y-77087963D01*
X124170147Y-77053616D01*
X124113533Y-77036443D01*
X123957011Y-76952779D01*
X123957009Y-76952778D01*
X123921271Y-76923448D01*
X123819814Y-76840186D01*
X123736552Y-76738729D01*
X123707222Y-76702991D01*
X123697652Y-76685087D01*
X123623557Y-76546467D01*
X123606384Y-76489853D01*
X123572037Y-76376627D01*
X123554641Y-76200000D01*
X123572037Y-76023373D01*
X123623557Y-75853534D01*
X123623557Y-75853533D01*
X123707221Y-75697011D01*
X123707222Y-75697009D01*
X123736552Y-75661271D01*
X123819814Y-75559814D01*
X123921271Y-75476552D01*
X123957009Y-75447222D01*
X123991515Y-75428778D01*
X124113533Y-75363557D01*
X124170147Y-75346384D01*
X124283373Y-75312037D01*
X124349558Y-75305518D01*
X124415740Y-75299000D01*
X124504260Y-75299000D01*
X124570442Y-75305518D01*
X124570442Y-75305518D01*
G37*
G36*
X134730443Y-73781519D02*
X134796627Y-73788037D01*
X134909853Y-73822384D01*
X134966467Y-73839557D01*
X135105087Y-73913652D01*
X135122991Y-73923222D01*
X135158729Y-73952552D01*
X135260186Y-74035814D01*
X135343448Y-74137271D01*
X135372778Y-74173009D01*
X135372779Y-74173011D01*
X135456443Y-74329533D01*
X135456443Y-74329534D01*
X135507963Y-74499373D01*
X135525359Y-74676000D01*
X135507963Y-74852627D01*
X135473616Y-74965853D01*
X135456443Y-75022467D01*
X135382348Y-75161087D01*
X135372778Y-75178991D01*
X135343448Y-75214729D01*
X135260186Y-75316186D01*
X135158729Y-75399448D01*
X135122991Y-75428778D01*
X135122989Y-75428779D01*
X134966467Y-75512443D01*
X134909853Y-75529616D01*
X134796627Y-75563963D01*
X134730443Y-75570481D01*
X134664260Y-75577000D01*
X134575740Y-75577000D01*
X134509557Y-75570481D01*
X134443373Y-75563963D01*
X134330147Y-75529616D01*
X134273533Y-75512443D01*
X134117011Y-75428779D01*
X134117009Y-75428778D01*
X134081271Y-75399448D01*
X133979814Y-75316186D01*
X133896552Y-75214729D01*
X133867222Y-75178991D01*
X133857652Y-75161087D01*
X133783557Y-75022467D01*
X133766384Y-74965853D01*
X133732037Y-74852627D01*
X133714641Y-74676000D01*
X133732037Y-74499373D01*
X133783557Y-74329534D01*
X133783557Y-74329533D01*
X133867221Y-74173011D01*
X133867222Y-74173009D01*
X133896552Y-74137271D01*
X133979814Y-74035814D01*
X134081271Y-73952552D01*
X134117009Y-73923222D01*
X134134913Y-73913652D01*
X134273533Y-73839557D01*
X134330147Y-73822384D01*
X134443373Y-73788037D01*
X134509557Y-73781519D01*
X134575740Y-73775000D01*
X134664260Y-73775000D01*
X134730443Y-73781519D01*
X134730443Y-73781519D01*
G37*
G36*
X132190443Y-73781519D02*
X132256627Y-73788037D01*
X132369853Y-73822384D01*
X132426467Y-73839557D01*
X132565087Y-73913652D01*
X132582991Y-73923222D01*
X132618729Y-73952552D01*
X132720186Y-74035814D01*
X132803448Y-74137271D01*
X132832778Y-74173009D01*
X132832779Y-74173011D01*
X132916443Y-74329533D01*
X132916443Y-74329534D01*
X132967963Y-74499373D01*
X132985359Y-74676000D01*
X132967963Y-74852627D01*
X132933616Y-74965853D01*
X132916443Y-75022467D01*
X132842348Y-75161087D01*
X132832778Y-75178991D01*
X132803448Y-75214729D01*
X132720186Y-75316186D01*
X132618729Y-75399448D01*
X132582991Y-75428778D01*
X132582989Y-75428779D01*
X132426467Y-75512443D01*
X132369853Y-75529616D01*
X132256627Y-75563963D01*
X132190443Y-75570481D01*
X132124260Y-75577000D01*
X132035740Y-75577000D01*
X131969557Y-75570481D01*
X131903373Y-75563963D01*
X131790147Y-75529616D01*
X131733533Y-75512443D01*
X131577011Y-75428779D01*
X131577009Y-75428778D01*
X131541271Y-75399448D01*
X131439814Y-75316186D01*
X131356552Y-75214729D01*
X131327222Y-75178991D01*
X131317652Y-75161087D01*
X131243557Y-75022467D01*
X131226384Y-74965853D01*
X131192037Y-74852627D01*
X131174641Y-74676000D01*
X131192037Y-74499373D01*
X131243557Y-74329534D01*
X131243557Y-74329533D01*
X131327221Y-74173011D01*
X131327222Y-74173009D01*
X131356552Y-74137271D01*
X131439814Y-74035814D01*
X131541271Y-73952552D01*
X131577009Y-73923222D01*
X131594913Y-73913652D01*
X131733533Y-73839557D01*
X131790147Y-73822384D01*
X131903373Y-73788037D01*
X131969557Y-73781519D01*
X132035740Y-73775000D01*
X132124260Y-73775000D01*
X132190443Y-73781519D01*
X132190443Y-73781519D01*
G37*
G36*
X130441000Y-75577000D02*
X128639000Y-75577000D01*
X128639000Y-73775000D01*
X130441000Y-73775000D01*
X130441000Y-75577000D01*
X130441000Y-75577000D01*
G37*
M02*
