M48
;DRILL file {KiCad (5.0.2)-1} date 8/4/2019 9:59:49 PM
;FORMAT={-:-/ absolute / inch / decimal}
FMAT,2
INCH,TZ
T1C0.0157
T2C0.0394
%
G90
G05
T1
X4.81Y-2.99
X4.81Y-3.13
X4.81Y-3.27
X4.81Y-3.42
X4.81Y-3.57
X4.81Y-3.72
X5.085Y-3.2425
X5.1475Y-3.16
X5.17Y-3.3025
X5.2Y-3.0725
X5.2Y-3.1225
X5.2Y-3.1775
X5.2Y-3.2325
X5.59Y-2.98
X5.59Y-3.12
X5.59Y-3.26
X5.59Y-3.4
X5.59Y-3.55
X5.59Y-3.71
T2
X5.1Y-2.94
X5.2Y-2.94
X5.3Y-2.94
X5.5Y-3.
X5.5Y-3.1
X5.5Y-3.2
X5.5Y-3.3
X5.5Y-3.4
X5.5Y-3.5
X5.5Y-3.6
X5.5Y-3.7
X4.9Y-3.
X4.9Y-3.1
X4.9Y-3.2
X4.9Y-3.3
X4.9Y-3.4
X4.9Y-3.5
X4.9Y-3.6
X4.9Y-3.7
T0
M30
